<?xml version="1.0" encoding="UTF-8"?>
<svg xmlns="http://www.w3.org/2000/svg" xmlns:xlink="http://www.w3.org/1999/xlink" width="463.506pt" height="463.506pt" viewBox="0 0 463.506 463.506" version="1.2">
<defs>
<g>
<symbol overflow="visible" id="glyph0-0">
<path style="stroke:none;" d=""/>
</symbol>
<symbol overflow="visible" id="glyph0-1">
<path style="stroke:none;" d="M 2.640625 -3.71875 L 3.765625 -3.71875 C 3.4375 -2.234375 3.34375 -1.8125 3.34375 -1.140625 C 3.34375 -1 3.34375 -0.734375 3.421875 -0.390625 C 3.515625 0.046875 3.640625 0.109375 3.78125 0.109375 C 3.984375 0.109375 4.1875 -0.0625 4.1875 -0.265625 C 4.1875 -0.328125 4.1875 -0.34375 4.125 -0.484375 C 3.84375 -1.203125 3.84375 -1.84375 3.84375 -2.125 C 3.84375 -2.65625 3.90625 -3.1875 4.015625 -3.71875 L 5.15625 -3.71875 C 5.28125 -3.71875 5.640625 -3.71875 5.640625 -4.046875 C 5.640625 -4.296875 5.4375 -4.296875 5.25 -4.296875 L 1.90625 -4.296875 C 1.6875 -4.296875 1.3125 -4.296875 0.875 -3.828125 C 0.53125 -3.4375 0.265625 -2.96875 0.265625 -2.921875 C 0.265625 -2.921875 0.265625 -2.828125 0.390625 -2.828125 C 0.46875 -2.828125 0.484375 -2.859375 0.546875 -2.953125 C 1.03125 -3.71875 1.609375 -3.71875 1.8125 -3.71875 L 2.375 -3.71875 C 2.0625 -2.515625 1.515625 -1.296875 1.109375 -0.390625 C 1.03125 -0.25 1.03125 -0.234375 1.03125 -0.15625 C 1.03125 0.03125 1.1875 0.109375 1.3125 0.109375 C 1.609375 0.109375 1.6875 -0.171875 1.8125 -0.53125 C 1.953125 -1 1.953125 -1.015625 2.078125 -1.515625 Z M 2.640625 -3.71875 "/>
</symbol>
<symbol overflow="visible" id="glyph0-2">
<path style="stroke:none;" d="M 1.78125 -1.140625 C 1.390625 -0.484375 1 -0.34375 0.5625 -0.3125 C 0.4375 -0.296875 0.34375 -0.296875 0.34375 -0.109375 C 0.34375 -0.046875 0.390625 0 0.484375 0 C 0.75 0 1.0625 -0.03125 1.328125 -0.03125 C 1.65625 -0.03125 2.015625 0 2.328125 0 C 2.390625 0 2.515625 0 2.515625 -0.1875 C 2.515625 -0.296875 2.421875 -0.3125 2.359375 -0.3125 C 2.125 -0.328125 1.890625 -0.40625 1.890625 -0.65625 C 1.890625 -0.78125 1.953125 -0.890625 2.03125 -1.03125 L 2.78125 -2.296875 L 5.28125 -2.296875 C 5.3125 -2.09375 5.4375 -0.734375 5.4375 -0.640625 C 5.4375 -0.34375 4.921875 -0.3125 4.734375 -0.3125 C 4.59375 -0.3125 4.484375 -0.3125 4.484375 -0.109375 C 4.484375 0 4.609375 0 4.625 0 C 5.03125 0 5.46875 -0.03125 5.875 -0.03125 C 6.125 -0.03125 6.75 0 7 0 C 7.0625 0 7.171875 0 7.171875 -0.203125 C 7.171875 -0.3125 7.078125 -0.3125 6.953125 -0.3125 C 6.328125 -0.3125 6.328125 -0.375 6.296875 -0.671875 L 5.6875 -6.890625 C 5.671875 -7.09375 5.671875 -7.125 5.5 -7.125 C 5.34375 -7.125 5.3125 -7.0625 5.25 -6.953125 Z M 2.96875 -2.609375 L 4.9375 -5.890625 L 5.25 -2.609375 Z M 2.96875 -2.609375 "/>
</symbol>
<symbol overflow="visible" id="glyph0-3">
<path style="stroke:none;" d="M 7.359375 -4.34375 C 7.359375 -5.9375 6.3125 -7.015625 4.828125 -7.015625 C 2.671875 -7.015625 0.484375 -4.75 0.484375 -2.4375 C 0.484375 -0.78125 1.609375 0.21875 3.03125 0.21875 C 5.140625 0.21875 7.359375 -1.953125 7.359375 -4.34375 Z M 3.09375 -0.046875 C 2.109375 -0.046875 1.40625 -0.84375 1.40625 -2.15625 C 1.40625 -2.59375 1.546875 -4.046875 2.3125 -5.21875 C 3 -6.25 3.984375 -6.765625 4.765625 -6.765625 C 5.578125 -6.765625 6.484375 -6.203125 6.484375 -4.734375 C 6.484375 -4.015625 6.203125 -2.453125 5.21875 -1.234375 C 4.75 -0.625 3.9375 -0.046875 3.09375 -0.046875 Z M 3.09375 -0.046875 "/>
</symbol>
<symbol overflow="visible" id="glyph1-0">
<path style="stroke:none;" d=""/>
</symbol>
<symbol overflow="visible" id="glyph1-1">
<path style="stroke:none;" d="M 2.890625 -3.5 C 3.703125 -3.765625 4.28125 -4.46875 4.28125 -5.25 C 4.28125 -6.078125 3.40625 -6.625 2.453125 -6.625 C 1.4375 -6.625 0.6875 -6.03125 0.6875 -5.28125 C 0.6875 -4.953125 0.90625 -4.75 1.1875 -4.75 C 1.5 -4.75 1.703125 -4.96875 1.703125 -5.265625 C 1.703125 -5.765625 1.234375 -5.765625 1.078125 -5.765625 C 1.390625 -6.25 2.046875 -6.375 2.40625 -6.375 C 2.8125 -6.375 3.359375 -6.15625 3.359375 -5.265625 C 3.359375 -5.140625 3.34375 -4.5625 3.078125 -4.125 C 2.78125 -3.65625 2.453125 -3.625 2.203125 -3.609375 C 2.125 -3.609375 1.875 -3.578125 1.8125 -3.578125 C 1.734375 -3.578125 1.65625 -3.5625 1.65625 -3.46875 C 1.65625 -3.359375 1.734375 -3.359375 1.90625 -3.359375 L 2.34375 -3.359375 C 3.15625 -3.359375 3.515625 -2.671875 3.515625 -1.703125 C 3.515625 -0.34375 2.84375 -0.0625 2.40625 -0.0625 C 1.96875 -0.0625 1.21875 -0.234375 0.875 -0.8125 C 1.21875 -0.765625 1.53125 -0.984375 1.53125 -1.359375 C 1.53125 -1.71875 1.265625 -1.921875 0.96875 -1.921875 C 0.734375 -1.921875 0.421875 -1.78125 0.421875 -1.34375 C 0.421875 -0.4375 1.34375 0.21875 2.421875 0.21875 C 3.640625 0.21875 4.546875 -0.6875 4.546875 -1.703125 C 4.546875 -2.515625 3.921875 -3.296875 2.890625 -3.5 Z M 2.890625 -3.5 "/>
</symbol>
<symbol overflow="visible" id="glyph1-2">
<path style="stroke:none;" d="M 2.921875 -1.640625 L 2.921875 -0.78125 C 2.921875 -0.421875 2.90625 -0.3125 2.171875 -0.3125 L 1.953125 -0.3125 L 1.953125 0 C 2.375 -0.03125 2.890625 -0.03125 3.296875 -0.03125 C 3.71875 -0.03125 4.25 -0.03125 4.65625 0 L 4.65625 -0.3125 L 4.453125 -0.3125 C 3.71875 -0.3125 3.6875 -0.421875 3.6875 -0.78125 L 3.6875 -1.640625 L 4.6875 -1.640625 L 4.6875 -1.953125 L 3.6875 -1.953125 L 3.6875 -6.484375 C 3.6875 -6.671875 3.6875 -6.734375 3.53125 -6.734375 C 3.4375 -6.734375 3.40625 -6.734375 3.328125 -6.625 L 0.28125 -1.953125 L 0.28125 -1.640625 Z M 2.984375 -1.953125 L 0.5625 -1.953125 L 2.984375 -5.65625 Z M 2.984375 -1.953125 "/>
</symbol>
<symbol overflow="visible" id="glyph1-3">
<path style="stroke:none;" d="M 1.3125 -3.265625 L 1.3125 -3.5 C 1.3125 -6.015625 2.546875 -6.375 3.0625 -6.375 C 3.296875 -6.375 3.71875 -6.3125 3.9375 -5.984375 C 3.78125 -5.984375 3.390625 -5.984375 3.390625 -5.53125 C 3.390625 -5.21875 3.625 -5.078125 3.84375 -5.078125 C 4 -5.078125 4.296875 -5.171875 4.296875 -5.546875 C 4.296875 -6.15625 3.859375 -6.625 3.03125 -6.625 C 1.765625 -6.625 0.421875 -5.34375 0.421875 -3.140625 C 0.421875 -0.484375 1.578125 0.21875 2.5 0.21875 C 3.609375 0.21875 4.546875 -0.71875 4.546875 -2.03125 C 4.546875 -3.296875 3.65625 -4.25 2.5625 -4.25 C 1.875 -4.25 1.515625 -3.75 1.3125 -3.265625 Z M 2.5 -0.0625 C 1.875 -0.0625 1.578125 -0.65625 1.515625 -0.8125 C 1.328125 -1.28125 1.328125 -2.0625 1.328125 -2.25 C 1.328125 -3.03125 1.65625 -4.015625 2.546875 -4.015625 C 2.703125 -4.015625 3.171875 -4.015625 3.46875 -3.40625 C 3.65625 -3.03125 3.65625 -2.53125 3.65625 -2.046875 C 3.65625 -1.5625 3.65625 -1.0625 3.484375 -0.703125 C 3.1875 -0.109375 2.734375 -0.0625 2.5 -0.0625 Z M 2.5 -0.0625 "/>
</symbol>
<symbol overflow="visible" id="glyph1-4">
<path style="stroke:none;" d="M 1.265625 -0.765625 L 2.3125 -1.796875 C 3.875 -3.171875 4.46875 -3.703125 4.46875 -4.703125 C 4.46875 -5.828125 3.578125 -6.625 2.359375 -6.625 C 1.234375 -6.625 0.5 -5.71875 0.5 -4.828125 C 0.5 -4.265625 1 -4.265625 1.03125 -4.265625 C 1.1875 -4.265625 1.546875 -4.390625 1.546875 -4.796875 C 1.546875 -5.0625 1.359375 -5.3125 1.015625 -5.3125 C 0.9375 -5.3125 0.921875 -5.3125 0.890625 -5.3125 C 1.109375 -5.953125 1.65625 -6.3125 2.234375 -6.3125 C 3.140625 -6.3125 3.5625 -5.515625 3.5625 -4.703125 C 3.5625 -3.90625 3.0625 -3.109375 2.515625 -2.5 L 0.609375 -0.375 C 0.5 -0.265625 0.5 -0.234375 0.5 0 L 4.1875 0 L 4.46875 -1.734375 L 4.21875 -1.734375 C 4.171875 -1.4375 4.09375 -1 4 -0.84375 C 3.9375 -0.765625 3.28125 -0.765625 3.0625 -0.765625 Z M 1.265625 -0.765625 "/>
</symbol>
<symbol overflow="visible" id="glyph1-5">
<path style="stroke:none;" d="M 4.46875 -2 C 4.46875 -3.1875 3.65625 -4.1875 2.578125 -4.1875 C 2.09375 -4.1875 1.671875 -4.015625 1.3125 -3.671875 L 1.3125 -5.609375 C 1.515625 -5.546875 1.84375 -5.484375 2.15625 -5.484375 C 3.390625 -5.484375 4.078125 -6.390625 4.078125 -6.515625 C 4.078125 -6.578125 4.046875 -6.625 3.984375 -6.625 C 3.96875 -6.625 3.953125 -6.625 3.90625 -6.59375 C 3.703125 -6.515625 3.21875 -6.3125 2.546875 -6.3125 C 2.15625 -6.3125 1.6875 -6.375 1.21875 -6.59375 C 1.140625 -6.625 1.125 -6.625 1.109375 -6.625 C 1 -6.625 1 -6.546875 1 -6.375 L 1 -3.4375 C 1 -3.25 1 -3.171875 1.140625 -3.171875 C 1.21875 -3.171875 1.234375 -3.203125 1.28125 -3.265625 C 1.390625 -3.421875 1.75 -3.96875 2.5625 -3.96875 C 3.078125 -3.96875 3.328125 -3.5 3.40625 -3.328125 C 3.5625 -2.953125 3.578125 -2.5625 3.578125 -2.0625 C 3.578125 -1.71875 3.578125 -1.125 3.34375 -0.703125 C 3.109375 -0.3125 2.734375 -0.0625 2.28125 -0.0625 C 1.546875 -0.0625 0.984375 -0.59375 0.8125 -1.171875 C 0.84375 -1.171875 0.875 -1.15625 0.984375 -1.15625 C 1.3125 -1.15625 1.484375 -1.40625 1.484375 -1.640625 C 1.484375 -1.875 1.3125 -2.125 0.984375 -2.125 C 0.84375 -2.125 0.5 -2.0625 0.5 -1.609375 C 0.5 -0.75 1.1875 0.21875 2.296875 0.21875 C 3.453125 0.21875 4.46875 -0.734375 4.46875 -2 Z M 4.46875 -2 "/>
</symbol>
<symbol overflow="visible" id="glyph1-6">
<path style="stroke:none;" d="M 4.578125 -3.1875 C 4.578125 -3.984375 4.53125 -4.78125 4.1875 -5.515625 C 3.71875 -6.46875 2.90625 -6.625 2.484375 -6.625 C 1.890625 -6.625 1.171875 -6.375 0.75 -5.4375 C 0.4375 -4.75 0.390625 -3.984375 0.390625 -3.1875 C 0.390625 -2.4375 0.421875 -1.546875 0.84375 -0.78125 C 1.265625 0.015625 1.984375 0.21875 2.484375 0.21875 C 3.015625 0.21875 3.765625 0.015625 4.203125 -0.9375 C 4.53125 -1.625 4.578125 -2.40625 4.578125 -3.1875 Z M 2.484375 0 C 2.09375 0 1.5 -0.25 1.328125 -1.203125 C 1.21875 -1.796875 1.21875 -2.71875 1.21875 -3.296875 C 1.21875 -3.9375 1.21875 -4.59375 1.296875 -5.140625 C 1.484375 -6.3125 2.234375 -6.40625 2.484375 -6.40625 C 2.8125 -6.40625 3.46875 -6.234375 3.65625 -5.25 C 3.75 -4.6875 3.75 -3.9375 3.75 -3.296875 C 3.75 -2.5625 3.75 -1.875 3.640625 -1.25 C 3.5 -0.296875 2.921875 0 2.484375 0 Z M 2.484375 0 "/>
</symbol>
<symbol overflow="visible" id="glyph2-0">
<path style="stroke:none;" d=""/>
</symbol>
<symbol overflow="visible" id="glyph2-1">
<path style="stroke:none;" d="M 6.5625 -2.296875 C 6.734375 -2.296875 6.90625 -2.296875 6.90625 -2.484375 C 6.90625 -2.6875 6.734375 -2.6875 6.5625 -2.6875 L 1.171875 -2.6875 C 1 -2.6875 0.828125 -2.6875 0.828125 -2.484375 C 0.828125 -2.296875 1 -2.296875 1.171875 -2.296875 Z M 6.5625 -2.296875 "/>
</symbol>
<symbol overflow="visible" id="glyph2-2">
<path style="stroke:none;" d="M 3.875 8.515625 L 2.125 4.640625 C 2.046875 4.484375 2 4.484375 1.96875 4.484375 C 1.953125 4.484375 1.90625 4.484375 1.796875 4.5625 L 0.859375 5.28125 C 0.734375 5.375 0.734375 5.40625 0.734375 5.4375 C 0.734375 5.484375 0.75 5.546875 0.828125 5.546875 C 0.890625 5.546875 1.0625 5.40625 1.171875 5.328125 C 1.21875 5.28125 1.375 5.171875 1.484375 5.09375 L 3.4375 9.390625 C 3.515625 9.5625 3.5625 9.5625 3.65625 9.5625 C 3.796875 9.5625 3.828125 9.5 3.90625 9.359375 L 8.421875 0 C 8.484375 -0.140625 8.484375 -0.171875 8.484375 -0.203125 C 8.484375 -0.296875 8.40625 -0.390625 8.296875 -0.390625 C 8.21875 -0.390625 8.140625 -0.34375 8.0625 -0.1875 Z M 3.875 8.515625 "/>
</symbol>
</g>
</defs>
<g id="surface1">
<path style="fill:none;stroke-width:1.99255;stroke-linecap:butt;stroke-linejoin:miter;stroke:rgb(53.109741%,7.646179%,7.818604%);stroke-opacity:1;stroke-miterlimit:10;" d="M 170.081065 -0.00155118 C 170.081065 93.934396 93.933588 170.081873 0.00155118 170.081873 C -93.934396 170.081873 -170.081873 93.934396 -170.081873 -0.00155118 C -170.081873 -93.933588 -93.934396 -170.081065 0.00155118 -170.081065 C 93.933588 -170.081065 170.081065 -93.933588 170.081065 -0.00155118 Z M 170.081065 -0.00155118 " transform="matrix(0.998935,0,0,-0.998935,231.506263,231.506263)"/>
<path style="fill:none;stroke-width:1.99255;stroke-linecap:round;stroke-linejoin:miter;stroke:rgb(53.109741%,7.646179%,7.818604%);stroke-opacity:1;stroke-miterlimit:10;" d="M -198.428458 -0.00155118 L 195.67863 -0.00155118 " transform="matrix(0.998935,0,0,-0.998935,231.506263,231.506263)"/>
<path style="fill-rule:nonzero;fill:rgb(53.109741%,7.646179%,7.818604%);fill-opacity:1;stroke-width:1.99255;stroke-linecap:round;stroke-linejoin:round;stroke:rgb(53.109741%,7.646179%,7.818604%);stroke-opacity:1;stroke-miterlimit:10;" d="M 1.752565 -0.00155118 C -0.437266 0.436415 -2.631008 1.316258 -5.258806 2.84914 C -2.631008 0.878292 -2.631008 -0.877484 -5.258806 -2.848332 C -2.631008 -1.31545 -0.437266 -0.439517 1.752565 -0.00155118 Z M 1.752565 -0.00155118 " transform="matrix(0.998935,0,0,-0.998935,426.975863,231.506263)"/>
<g style="fill:rgb(0%,0%,0%);fill-opacity:1;">
  <use xlink:href="#glyph0-1" x="321.562282" y="66.897701"/>
</g>
<path style="fill:none;stroke-width:0.398;stroke-linecap:butt;stroke-linejoin:miter;stroke:rgb(0%,0%,0%);stroke-opacity:1;stroke-miterlimit:10;" d="M 0.000218055 0.00155404 L 6.037896 0.00155404 " transform="matrix(0.998935,0,0,-0.998935,321.562282,71.142177)"/>
<g style="fill:rgb(0%,0%,0%);fill-opacity:1;">
  <use xlink:href="#glyph1-1" x="322.08972" y="80.457249"/>
</g>
<g style="fill:rgb(0%,0%,0%);fill-opacity:1;">
  <use xlink:href="#glyph0-1" x="356.74978" y="93.897925"/>
</g>
<path style="fill:none;stroke-width:0.398;stroke-linecap:butt;stroke-linejoin:miter;stroke:rgb(0%,0%,0%);stroke-opacity:1;stroke-miterlimit:10;" d="M 0.000220537 0.00177772 L 6.037899 0.00177772 " transform="matrix(0.998935,0,0,-0.998935,356.74978,98.142401)"/>
<g style="fill:rgb(0%,0%,0%);fill-opacity:1;">
  <use xlink:href="#glyph1-2" x="357.276219" y="107.457473"/>
</g>
<g style="fill:rgb(0%,0%,0%);fill-opacity:1;">
  <use xlink:href="#glyph0-1" x="383.750003" y="129.085422"/>
</g>
<path style="fill:none;stroke-width:0.398;stroke-linecap:butt;stroke-linejoin:miter;stroke:rgb(0%,0%,0%);stroke-opacity:1;stroke-miterlimit:10;" d="M -0.00000313696 0.00177523 L 6.037675 0.00177523 " transform="matrix(0.998935,0,0,-0.998935,383.750003,133.329898)"/>
<g style="fill:rgb(0%,0%,0%);fill-opacity:1;">
  <use xlink:href="#glyph1-3" x="384.276442" y="142.643972"/>
</g>
<g style="fill:rgb(0%,0%,0%);fill-opacity:1;">
  <use xlink:href="#glyph2-1" x="382.555276" y="331.385812"/>
</g>
<g style="fill:rgb(0%,0%,0%);fill-opacity:1;">
  <use xlink:href="#glyph0-1" x="391.489754" y="324.652988"/>
</g>
<path style="fill:none;stroke-width:0.398;stroke-linecap:butt;stroke-linejoin:miter;stroke:rgb(0%,0%,0%);stroke-opacity:1;stroke-miterlimit:10;" d="M -0.00147451 -0.000974123 L 6.036204 -0.000974123 " transform="matrix(0.998935,0,0,-0.998935,391.489754,328.897464)"/>
<g style="fill:rgb(0%,0%,0%);fill-opacity:1;">
  <use xlink:href="#glyph1-3" x="392.017192" y="338.212537"/>
</g>
<g style="fill:rgb(0%,0%,0%);fill-opacity:1;">
  <use xlink:href="#glyph2-1" x="355.555053" y="366.57331"/>
</g>
<g style="fill:rgb(0%,0%,0%);fill-opacity:1;">
  <use xlink:href="#glyph0-1" x="364.489531" y="359.840486"/>
</g>
<path style="fill:none;stroke-width:0.398;stroke-linecap:butt;stroke-linejoin:miter;stroke:rgb(0%,0%,0%);stroke-opacity:1;stroke-miterlimit:10;" d="M -0.00125083 -0.000976604 L 6.036427 -0.000976604 " transform="matrix(0.998935,0,0,-0.998935,364.489531,364.084962)"/>
<g style="fill:rgb(0%,0%,0%);fill-opacity:1;">
  <use xlink:href="#glyph1-2" x="365.016969" y="373.400034"/>
</g>
<g style="fill:rgb(0%,0%,0%);fill-opacity:1;">
  <use xlink:href="#glyph2-1" x="320.368554" y="393.573533"/>
</g>
<g style="fill:rgb(0%,0%,0%);fill-opacity:1;">
  <use xlink:href="#glyph0-1" x="329.303032" y="386.840709"/>
</g>
<path style="fill:none;stroke-width:0.398;stroke-linecap:butt;stroke-linejoin:miter;stroke:rgb(0%,0%,0%);stroke-opacity:1;stroke-miterlimit:10;" d="M 0.0016571 -0.000752931 L 6.035425 -0.000752931 " transform="matrix(0.998935,0,0,-0.998935,329.303032,391.085185)"/>
<g style="fill:rgb(0%,0%,0%);fill-opacity:1;">
  <use xlink:href="#glyph1-1" x="329.829471" y="400.400257"/>
</g>
<g style="fill:rgb(0%,0%,0%);fill-opacity:1;">
  <use xlink:href="#glyph2-1" x="121.509496" y="395.702265"/>
</g>
<g style="fill:rgb(0%,0%,0%);fill-opacity:1;">
  <use xlink:href="#glyph1-4" x="130.443974" y="388.96944"/>
</g>
<g style="fill:rgb(0%,0%,0%);fill-opacity:1;">
  <use xlink:href="#glyph0-1" x="135.419971" y="388.96944"/>
</g>
<path style="fill:none;stroke-width:0.398;stroke-linecap:butt;stroke-linejoin:miter;stroke:rgb(0%,0%,0%);stroke-opacity:1;stroke-miterlimit:10;" d="M 0.00133979 -0.000928148 L 11.016974 -0.000928148 " transform="matrix(0.998935,0,0,-0.998935,130.443974,393.213917)"/>
<g style="fill:rgb(0%,0%,0%);fill-opacity:1;">
  <use xlink:href="#glyph1-1" x="133.458761" y="402.52799"/>
</g>
<g style="fill:rgb(0%,0%,0%);fill-opacity:1;">
  <use xlink:href="#glyph2-1" x="86.321999" y="368.702041"/>
</g>
<g style="fill:rgb(0%,0%,0%);fill-opacity:1;">
  <use xlink:href="#glyph1-1" x="95.256477" y="361.969217"/>
</g>
<g style="fill:rgb(0%,0%,0%);fill-opacity:1;">
  <use xlink:href="#glyph0-1" x="100.232473" y="361.969217"/>
</g>
<path style="fill:none;stroke-width:0.398;stroke-linecap:butt;stroke-linejoin:miter;stroke:rgb(0%,0%,0%);stroke-opacity:1;stroke-miterlimit:10;" d="M 0.00133731 -0.00115182 L 11.016971 -0.00115182 " transform="matrix(0.998935,0,0,-0.998935,95.256477,366.213693)"/>
<g style="fill:rgb(0%,0%,0%);fill-opacity:1;">
  <use xlink:href="#glyph1-2" x="98.271263" y="375.528765"/>
</g>
<g style="fill:rgb(0%,0%,0%);fill-opacity:1;">
  <use xlink:href="#glyph2-1" x="59.321775" y="333.514544"/>
</g>
<g style="fill:rgb(0%,0%,0%);fill-opacity:1;">
  <use xlink:href="#glyph1-5" x="68.256253" y="326.781719"/>
</g>
<g style="fill:rgb(0%,0%,0%);fill-opacity:1;">
  <use xlink:href="#glyph0-1" x="73.23225" y="326.781719"/>
</g>
<path style="fill:none;stroke-width:0.398;stroke-linecap:butt;stroke-linejoin:miter;stroke:rgb(0%,0%,0%);stroke-opacity:1;stroke-miterlimit:10;" d="M 0.00156099 -0.00114934 L 11.017195 -0.00114934 " transform="matrix(0.998935,0,0,-0.998935,68.256253,331.026196)"/>
<g style="fill:rgb(0%,0%,0%);fill-opacity:1;">
  <use xlink:href="#glyph1-3" x="71.272039" y="340.341268"/>
</g>
<g style="fill:rgb(0%,0%,0%);fill-opacity:1;">
  <use xlink:href="#glyph1-5" x="68.256253" y="129.085422"/>
</g>
<g style="fill:rgb(0%,0%,0%);fill-opacity:1;">
  <use xlink:href="#glyph0-1" x="73.23225" y="129.085422"/>
</g>
<path style="fill:none;stroke-width:0.398;stroke-linecap:butt;stroke-linejoin:miter;stroke:rgb(0%,0%,0%);stroke-opacity:1;stroke-miterlimit:10;" d="M 0.00156099 0.00177523 L 11.017195 0.00177523 " transform="matrix(0.998935,0,0,-0.998935,68.256253,133.329898)"/>
<g style="fill:rgb(0%,0%,0%);fill-opacity:1;">
  <use xlink:href="#glyph1-3" x="71.272039" y="142.643972"/>
</g>
<g style="fill:rgb(0%,0%,0%);fill-opacity:1;">
  <use xlink:href="#glyph1-1" x="95.256477" y="93.897925"/>
</g>
<g style="fill:rgb(0%,0%,0%);fill-opacity:1;">
  <use xlink:href="#glyph0-1" x="100.232473" y="93.897925"/>
</g>
<path style="fill:none;stroke-width:0.398;stroke-linecap:butt;stroke-linejoin:miter;stroke:rgb(0%,0%,0%);stroke-opacity:1;stroke-miterlimit:10;" d="M 0.00133731 0.00177772 L 11.016971 0.00177772 " transform="matrix(0.998935,0,0,-0.998935,95.256477,98.142401)"/>
<g style="fill:rgb(0%,0%,0%);fill-opacity:1;">
  <use xlink:href="#glyph1-2" x="98.271263" y="107.457473"/>
</g>
<g style="fill:rgb(0%,0%,0%);fill-opacity:1;">
  <use xlink:href="#glyph1-4" x="130.443974" y="66.897701"/>
</g>
<g style="fill:rgb(0%,0%,0%);fill-opacity:1;">
  <use xlink:href="#glyph0-1" x="135.419971" y="66.897701"/>
</g>
<path style="fill:none;stroke-width:0.398;stroke-linecap:butt;stroke-linejoin:miter;stroke:rgb(0%,0%,0%);stroke-opacity:1;stroke-miterlimit:10;" d="M 0.00133979 0.00155404 L 11.016974 0.00155404 " transform="matrix(0.998935,0,0,-0.998935,130.443974,71.142177)"/>
<g style="fill:rgb(0%,0%,0%);fill-opacity:1;">
  <use xlink:href="#glyph1-1" x="133.458761" y="80.457249"/>
</g>
<g style="fill:rgb(0%,0%,0%);fill-opacity:1;">
  <use xlink:href="#glyph1-6" x="405.317017" y="227.593433"/>
</g>
<g style="fill:rgb(0%,0%,0%);fill-opacity:1;">
  <use xlink:href="#glyph0-1" x="51.664936" y="227.593433"/>
</g>
<g style="fill:rgb(0%,0%,0%);fill-opacity:1;">
  <use xlink:href="#glyph0-2" x="405.317017" y="247.19654"/>
</g>
<g style="fill:rgb(0%,0%,0%);fill-opacity:1;">
  <use xlink:href="#glyph2-1" x="42.490714" y="247.19654"/>
</g>
<g style="fill:rgb(0%,0%,0%);fill-opacity:1;">
  <use xlink:href="#glyph0-2" x="50.231374" y="247.19654"/>
</g>
<g style="fill:rgb(0%,0%,0%);fill-opacity:1;">
  <use xlink:href="#glyph0-1" x="228.491476" y="44.13596"/>
</g>
<path style="fill:none;stroke-width:0.398;stroke-linecap:butt;stroke-linejoin:miter;stroke:rgb(0%,0%,0%);stroke-opacity:1;stroke-miterlimit:10;" d="M 0.000712159 0.001532 L 6.03448 0.001532 " transform="matrix(0.998935,0,0,-0.998935,228.491476,48.380437)"/>
<g style="fill:rgb(0%,0%,0%);fill-opacity:1;">
  <use xlink:href="#glyph1-4" x="229.017915" y="57.695509"/>
</g>
<g style="fill:rgb(0%,0%,0%);fill-opacity:1;">
  <use xlink:href="#glyph2-1" x="223.426874" y="416.334275"/>
</g>
<g style="fill:rgb(0%,0%,0%);fill-opacity:1;">
  <use xlink:href="#glyph0-1" x="232.361352" y="409.60245"/>
</g>
<path style="fill:none;stroke-width:0.398;stroke-linecap:butt;stroke-linejoin:miter;stroke:rgb(0%,0%,0%);stroke-opacity:1;stroke-miterlimit:10;" d="M 0.00193168 -0.00073089 L 6.035699 -0.00073089 " transform="matrix(0.998935,0,0,-0.998935,232.361352,413.846926)"/>
<g style="fill:rgb(0%,0%,0%);fill-opacity:1;">
  <use xlink:href="#glyph1-4" x="232.888789" y="423.160999"/>
</g>
<path style="fill:none;stroke-width:0.19925;stroke-linecap:round;stroke-linejoin:miter;stroke:rgb(0%,50%,0%);stroke-opacity:1;stroke-miterlimit:10;" d="M 147.295087 85.042116 L 147.295087 -85.041308 " transform="matrix(0.998935,0,0,-0.998935,231.506263,231.506263)"/>
<path style="fill:none;stroke-width:0.19925;stroke-linecap:round;stroke-linejoin:miter;stroke:rgb(0%,50%,0%);stroke-opacity:1;stroke-miterlimit:10;" d="M -147.295895 -85.041308 L -147.295895 85.042116 " transform="matrix(0.998935,0,0,-0.998935,231.506263,231.506263)"/>
<path style="fill:none;stroke-width:0.19925;stroke-linecap:round;stroke-linejoin:miter;stroke:rgb(0%,50%,0%);stroke-opacity:1;stroke-miterlimit:10;" d="M 120.26631 120.267118 L 120.26631 -120.26631 " transform="matrix(0.998935,0,0,-0.998935,231.506263,231.506263)"/>
<path style="fill:none;stroke-width:0.19925;stroke-linecap:round;stroke-linejoin:miter;stroke:rgb(0%,50%,0%);stroke-opacity:1;stroke-miterlimit:10;" d="M -120.267118 -120.26631 L -120.267118 120.267118 " transform="matrix(0.998935,0,0,-0.998935,231.506263,231.506263)"/>
<path style="fill:none;stroke-width:0.19925;stroke-linecap:round;stroke-linejoin:miter;stroke:rgb(0%,50%,0%);stroke-opacity:1;stroke-miterlimit:10;" d="M 85.041308 147.295895 L 85.041308 -147.295087 " transform="matrix(0.998935,0,0,-0.998935,231.506263,231.506263)"/>
<path style="fill:none;stroke-width:0.19925;stroke-linecap:round;stroke-linejoin:miter;stroke:rgb(0%,50%,0%);stroke-opacity:1;stroke-miterlimit:10;" d="M -85.042116 -147.295087 L -85.042116 147.295895 " transform="matrix(0.998935,0,0,-0.998935,231.506263,231.506263)"/>
<path style="fill:none;stroke-width:0.19925;stroke-linecap:round;stroke-linejoin:miter;stroke:rgb(0%,50%,0%);stroke-opacity:1;stroke-miterlimit:10;" d="M 85.041308 147.295895 L -85.042116 -147.295087 " transform="matrix(0.998935,0,0,-0.998935,231.506263,231.506263)"/>
<path style="fill:none;stroke-width:0.19925;stroke-linecap:round;stroke-linejoin:miter;stroke:rgb(0%,50%,0%);stroke-opacity:1;stroke-miterlimit:10;" d="M 120.26631 120.267118 L -120.267118 -120.26631 " transform="matrix(0.998935,0,0,-0.998935,231.506263,231.506263)"/>
<path style="fill:none;stroke-width:0.19925;stroke-linecap:round;stroke-linejoin:miter;stroke:rgb(0%,50%,0%);stroke-opacity:1;stroke-miterlimit:10;" d="M 147.295087 85.042116 L -147.295895 -85.041308 " transform="matrix(0.998935,0,0,-0.998935,231.506263,231.506263)"/>
<path style="fill:none;stroke-width:0.19925;stroke-linecap:round;stroke-linejoin:miter;stroke:rgb(0%,50%,0%);stroke-opacity:1;stroke-miterlimit:10;" d="M 147.295087 -85.041308 L -147.295895 85.042116 " transform="matrix(0.998935,0,0,-0.998935,231.506263,231.506263)"/>
<path style="fill:none;stroke-width:0.19925;stroke-linecap:round;stroke-linejoin:miter;stroke:rgb(0%,50%,0%);stroke-opacity:1;stroke-miterlimit:10;" d="M 120.26631 -120.26631 L -120.267118 120.267118 " transform="matrix(0.998935,0,0,-0.998935,231.506263,231.506263)"/>
<path style="fill:none;stroke-width:0.19925;stroke-linecap:round;stroke-linejoin:miter;stroke:rgb(0%,50%,0%);stroke-opacity:1;stroke-miterlimit:10;" d="M 85.041308 -147.295087 L -85.042116 147.295895 " transform="matrix(0.998935,0,0,-0.998935,231.506263,231.506263)"/>
<path style="fill:none;stroke-width:1.19553;stroke-linecap:butt;stroke-linejoin:miter;stroke:rgb(75.596619%,41.775513%,34.222412%);stroke-opacity:1;stroke-miterlimit:10;" d="M 0.00155118 170.081873 L 0.00155118 -170.081065 " transform="matrix(0.998935,0,0,-0.998935,231.506263,231.506263)"/>
<path style="fill-rule:nonzero;fill:rgb(100%,100%,100%);fill-opacity:1;stroke-width:1.19553;stroke-linecap:butt;stroke-linejoin:miter;stroke:rgb(0%,0%,0%);stroke-opacity:1;stroke-miterlimit:10;" d="M 85.788197 147.295895 C 85.788197 147.706488 85.451901 148.042784 85.041308 148.042784 C 84.626804 148.042784 84.294419 147.706488 84.294419 147.295895 C 84.294419 146.881391 84.626804 146.549006 85.041308 146.549006 C 85.451901 146.549006 85.788197 146.881391 85.788197 147.295895 Z M 85.788197 147.295895 " transform="matrix(0.998935,0,0,-0.998935,231.506263,231.506263)"/>
<path style="fill-rule:nonzero;fill:rgb(100%,100%,100%);fill-opacity:1;stroke-width:1.19553;stroke-linecap:butt;stroke-linejoin:miter;stroke:rgb(0%,0%,0%);stroke-opacity:1;stroke-miterlimit:10;" d="M 121.013199 120.267118 C 121.013199 120.677712 120.676904 121.014007 120.26631 121.014007 C 119.851807 121.014007 119.519422 120.677712 119.519422 120.267118 C 119.519422 119.852615 119.851807 119.516319 120.26631 119.516319 C 120.676904 119.516319 121.013199 119.852615 121.013199 120.267118 Z M 121.013199 120.267118 " transform="matrix(0.998935,0,0,-0.998935,231.506263,231.506263)"/>
<path style="fill-rule:nonzero;fill:rgb(100%,100%,100%);fill-opacity:1;stroke-width:1.19553;stroke-linecap:butt;stroke-linejoin:miter;stroke:rgb(0%,0%,0%);stroke-opacity:1;stroke-miterlimit:10;" d="M 148.041976 85.042116 C 148.041976 85.452709 147.70568 85.789005 147.295087 85.789005 C 146.880583 85.789005 146.548198 85.452709 146.548198 85.042116 C 146.548198 84.627612 146.880583 84.291317 147.295087 84.291317 C 147.70568 84.291317 148.041976 84.627612 148.041976 85.042116 Z M 148.041976 85.042116 " transform="matrix(0.998935,0,0,-0.998935,231.506263,231.506263)"/>
<path style="fill-rule:nonzero;fill:rgb(100%,100%,100%);fill-opacity:1;stroke-width:1.19553;stroke-linecap:butt;stroke-linejoin:miter;stroke:rgb(0%,0%,0%);stroke-opacity:1;stroke-miterlimit:10;" d="M 148.041976 -85.041308 C 148.041976 -84.626804 147.70568 -84.294419 147.295087 -84.294419 C 146.880583 -84.294419 146.548198 -84.626804 146.548198 -85.041308 C 146.548198 -85.451901 146.880583 -85.788197 147.295087 -85.788197 C 147.70568 -85.788197 148.041976 -85.451901 148.041976 -85.041308 Z M 148.041976 -85.041308 " transform="matrix(0.998935,0,0,-0.998935,231.506263,231.506263)"/>
<path style="fill-rule:nonzero;fill:rgb(100%,100%,100%);fill-opacity:1;stroke-width:1.19553;stroke-linecap:butt;stroke-linejoin:miter;stroke:rgb(0%,0%,0%);stroke-opacity:1;stroke-miterlimit:10;" d="M 121.013199 -120.26631 C 121.013199 -119.851807 120.676904 -119.519422 120.26631 -119.519422 C 119.851807 -119.519422 119.519422 -119.851807 119.519422 -120.26631 C 119.519422 -120.676904 119.851807 -121.013199 120.26631 -121.013199 C 120.676904 -121.013199 121.013199 -120.676904 121.013199 -120.26631 Z M 121.013199 -120.26631 " transform="matrix(0.998935,0,0,-0.998935,231.506263,231.506263)"/>
<path style="fill-rule:nonzero;fill:rgb(100%,100%,100%);fill-opacity:1;stroke-width:1.19553;stroke-linecap:butt;stroke-linejoin:miter;stroke:rgb(0%,0%,0%);stroke-opacity:1;stroke-miterlimit:10;" d="M 85.788197 -147.295087 C 85.788197 -146.880583 85.451901 -146.548198 85.041308 -146.548198 C 84.626804 -146.548198 84.294419 -146.880583 84.294419 -147.295087 C 84.294419 -147.70568 84.626804 -148.041976 85.041308 -148.041976 C 85.451901 -148.041976 85.788197 -147.70568 85.788197 -147.295087 Z M 85.788197 -147.295087 " transform="matrix(0.998935,0,0,-0.998935,231.506263,231.506263)"/>
<path style="fill-rule:nonzero;fill:rgb(100%,100%,100%);fill-opacity:1;stroke-width:1.19553;stroke-linecap:butt;stroke-linejoin:miter;stroke:rgb(0%,0%,0%);stroke-opacity:1;stroke-miterlimit:10;" d="M -84.291317 -147.295087 C -84.291317 -146.880583 -84.627612 -146.548198 -85.042116 -146.548198 C -85.452709 -146.548198 -85.789005 -146.880583 -85.789005 -147.295087 C -85.789005 -147.70568 -85.452709 -148.041976 -85.042116 -148.041976 C -84.627612 -148.041976 -84.291317 -147.70568 -84.291317 -147.295087 Z M -84.291317 -147.295087 " transform="matrix(0.998935,0,0,-0.998935,231.506263,231.506263)"/>
<path style="fill-rule:nonzero;fill:rgb(100%,100%,100%);fill-opacity:1;stroke-width:1.19553;stroke-linecap:butt;stroke-linejoin:miter;stroke:rgb(0%,0%,0%);stroke-opacity:1;stroke-miterlimit:10;" d="M -119.516319 -120.26631 C -119.516319 -119.851807 -119.852615 -119.519422 -120.267118 -119.519422 C -120.677712 -119.519422 -121.014007 -119.851807 -121.014007 -120.26631 C -121.014007 -120.676904 -120.677712 -121.013199 -120.267118 -121.013199 C -119.852615 -121.013199 -119.516319 -120.676904 -119.516319 -120.26631 Z M -119.516319 -120.26631 " transform="matrix(0.998935,0,0,-0.998935,231.506263,231.506263)"/>
<path style="fill-rule:nonzero;fill:rgb(100%,100%,100%);fill-opacity:1;stroke-width:1.19553;stroke-linecap:butt;stroke-linejoin:miter;stroke:rgb(0%,0%,0%);stroke-opacity:1;stroke-miterlimit:10;" d="M -146.549006 -85.041308 C -146.549006 -84.626804 -146.881391 -84.294419 -147.295895 -84.294419 C -147.706488 -84.294419 -148.042784 -84.626804 -148.042784 -85.041308 C -148.042784 -85.451901 -147.706488 -85.788197 -147.295895 -85.788197 C -146.881391 -85.788197 -146.549006 -85.451901 -146.549006 -85.041308 Z M -146.549006 -85.041308 " transform="matrix(0.998935,0,0,-0.998935,231.506263,231.506263)"/>
<path style="fill-rule:nonzero;fill:rgb(100%,100%,100%);fill-opacity:1;stroke-width:1.19553;stroke-linecap:butt;stroke-linejoin:miter;stroke:rgb(0%,0%,0%);stroke-opacity:1;stroke-miterlimit:10;" d="M -146.549006 85.042116 C -146.549006 85.452709 -146.881391 85.789005 -147.295895 85.789005 C -147.706488 85.789005 -148.042784 85.452709 -148.042784 85.042116 C -148.042784 84.627612 -147.706488 84.291317 -147.295895 84.291317 C -146.881391 84.291317 -146.549006 84.627612 -146.549006 85.042116 Z M -146.549006 85.042116 " transform="matrix(0.998935,0,0,-0.998935,231.506263,231.506263)"/>
<path style="fill-rule:nonzero;fill:rgb(100%,100%,100%);fill-opacity:1;stroke-width:1.19553;stroke-linecap:butt;stroke-linejoin:miter;stroke:rgb(0%,0%,0%);stroke-opacity:1;stroke-miterlimit:10;" d="M -119.516319 120.267118 C -119.516319 120.677712 -119.852615 121.014007 -120.267118 121.014007 C -120.677712 121.014007 -121.014007 120.677712 -121.014007 120.267118 C -121.014007 119.852615 -120.677712 119.516319 -120.267118 119.516319 C -119.852615 119.516319 -119.516319 119.852615 -119.516319 120.267118 Z M -119.516319 120.267118 " transform="matrix(0.998935,0,0,-0.998935,231.506263,231.506263)"/>
<path style="fill-rule:nonzero;fill:rgb(100%,100%,100%);fill-opacity:1;stroke-width:1.19553;stroke-linecap:butt;stroke-linejoin:miter;stroke:rgb(0%,0%,0%);stroke-opacity:1;stroke-miterlimit:10;" d="M -84.291317 147.295895 C -84.291317 147.706488 -84.627612 148.042784 -85.042116 148.042784 C -85.452709 148.042784 -85.789005 147.706488 -85.789005 147.295895 C -85.789005 146.881391 -85.452709 146.549006 -85.042116 146.549006 C -84.627612 146.549006 -84.291317 146.881391 -84.291317 147.295895 Z M -84.291317 147.295895 " transform="matrix(0.998935,0,0,-0.998935,231.506263,231.506263)"/>
<path style="fill-rule:nonzero;fill:rgb(100%,100%,100%);fill-opacity:1;stroke-width:1.19553;stroke-linecap:butt;stroke-linejoin:miter;stroke:rgb(0%,0%,0%);stroke-opacity:1;stroke-miterlimit:10;" d="M 85.788197 -0.00155118 C 85.788197 0.412953 85.451901 0.745338 85.041308 0.745338 C 84.626804 0.745338 84.294419 0.412953 84.294419 -0.00155118 C 84.294419 -0.412145 84.626804 -0.74844 85.041308 -0.74844 C 85.451901 -0.74844 85.788197 -0.412145 85.788197 -0.00155118 Z M 85.788197 -0.00155118 " transform="matrix(0.998935,0,0,-0.998935,231.506263,231.506263)"/>
<path style="fill-rule:nonzero;fill:rgb(100%,100%,100%);fill-opacity:1;stroke-width:1.19553;stroke-linecap:butt;stroke-linejoin:miter;stroke:rgb(0%,0%,0%);stroke-opacity:1;stroke-miterlimit:10;" d="M 121.013199 -0.00155118 C 121.013199 0.412953 120.676904 0.745338 120.26631 0.745338 C 119.851807 0.745338 119.519422 0.412953 119.519422 -0.00155118 C 119.519422 -0.412145 119.851807 -0.74844 120.26631 -0.74844 C 120.676904 -0.74844 121.013199 -0.412145 121.013199 -0.00155118 Z M 121.013199 -0.00155118 " transform="matrix(0.998935,0,0,-0.998935,231.506263,231.506263)"/>
<path style="fill-rule:nonzero;fill:rgb(100%,100%,100%);fill-opacity:1;stroke-width:1.19553;stroke-linecap:butt;stroke-linejoin:miter;stroke:rgb(0%,0%,0%);stroke-opacity:1;stroke-miterlimit:10;" d="M 148.041976 -0.00155118 C 148.041976 0.412953 147.70568 0.745338 147.295087 0.745338 C 146.880583 0.745338 146.548198 0.412953 146.548198 -0.00155118 C 146.548198 -0.412145 146.880583 -0.74844 147.295087 -0.74844 C 147.70568 -0.74844 148.041976 -0.412145 148.041976 -0.00155118 Z M 148.041976 -0.00155118 " transform="matrix(0.998935,0,0,-0.998935,231.506263,231.506263)"/>
<path style="fill-rule:nonzero;fill:rgb(100%,100%,100%);fill-opacity:1;stroke-width:1.19553;stroke-linecap:butt;stroke-linejoin:miter;stroke:rgb(0%,0%,0%);stroke-opacity:1;stroke-miterlimit:10;" d="M -146.549006 -0.00155118 C -146.549006 0.412953 -146.881391 0.745338 -147.295895 0.745338 C -147.706488 0.745338 -148.042784 0.412953 -148.042784 -0.00155118 C -148.042784 -0.412145 -147.706488 -0.74844 -147.295895 -0.74844 C -146.881391 -0.74844 -146.549006 -0.412145 -146.549006 -0.00155118 Z M -146.549006 -0.00155118 " transform="matrix(0.998935,0,0,-0.998935,231.506263,231.506263)"/>
<path style="fill-rule:nonzero;fill:rgb(100%,100%,100%);fill-opacity:1;stroke-width:1.19553;stroke-linecap:butt;stroke-linejoin:miter;stroke:rgb(0%,0%,0%);stroke-opacity:1;stroke-miterlimit:10;" d="M -119.516319 -0.00155118 C -119.516319 0.412953 -119.852615 0.745338 -120.267118 0.745338 C -120.677712 0.745338 -121.014007 0.412953 -121.014007 -0.00155118 C -121.014007 -0.412145 -120.677712 -0.74844 -120.267118 -0.74844 C -119.852615 -0.74844 -119.516319 -0.412145 -119.516319 -0.00155118 Z M -119.516319 -0.00155118 " transform="matrix(0.998935,0,0,-0.998935,231.506263,231.506263)"/>
<path style="fill-rule:nonzero;fill:rgb(100%,100%,100%);fill-opacity:1;stroke-width:1.19553;stroke-linecap:butt;stroke-linejoin:miter;stroke:rgb(0%,0%,0%);stroke-opacity:1;stroke-miterlimit:10;" d="M -84.291317 -0.00155118 C -84.291317 0.412953 -84.627612 0.745338 -85.042116 0.745338 C -85.452709 0.745338 -85.789005 0.412953 -85.789005 -0.00155118 C -85.789005 -0.412145 -85.452709 -0.74844 -85.042116 -0.74844 C -84.627612 -0.74844 -84.291317 -0.412145 -84.291317 -0.00155118 Z M -84.291317 -0.00155118 " transform="matrix(0.998935,0,0,-0.998935,231.506263,231.506263)"/>
<path style="fill-rule:nonzero;fill:rgb(100%,100%,100%);fill-opacity:1;stroke-width:1.19553;stroke-linecap:butt;stroke-linejoin:miter;stroke:rgb(0%,0%,0%);stroke-opacity:1;stroke-miterlimit:10;" d="M 0.74844 -0.00155118 C 0.74844 0.412953 0.412145 0.745338 0.00155118 0.745338 C -0.412953 0.745338 -0.745338 0.412953 -0.745338 -0.00155118 C -0.745338 -0.412145 -0.412953 -0.74844 0.00155118 -0.74844 C 0.412145 -0.74844 0.74844 -0.412145 0.74844 -0.00155118 Z M 0.74844 -0.00155118 " transform="matrix(0.998935,0,0,-0.998935,231.506263,231.506263)"/>
<path style="fill-rule:nonzero;fill:rgb(100%,100%,100%);fill-opacity:1;stroke-width:1.19553;stroke-linecap:butt;stroke-linejoin:miter;stroke:rgb(0%,0%,0%);stroke-opacity:1;stroke-miterlimit:10;" d="M 170.827954 -0.00155118 C 170.827954 0.412953 170.491658 0.745338 170.081065 0.745338 C 169.666561 0.745338 169.334176 0.412953 169.334176 -0.00155118 C 169.334176 -0.412145 169.666561 -0.74844 170.081065 -0.74844 C 170.491658 -0.74844 170.827954 -0.412145 170.827954 -0.00155118 Z M 170.827954 -0.00155118 " transform="matrix(0.998935,0,0,-0.998935,231.506263,231.506263)"/>
<path style="fill-rule:nonzero;fill:rgb(100%,100%,100%);fill-opacity:1;stroke-width:1.19553;stroke-linecap:butt;stroke-linejoin:miter;stroke:rgb(0%,0%,0%);stroke-opacity:1;stroke-miterlimit:10;" d="M -169.334984 -0.00155118 C -169.334984 0.412953 -169.667369 0.745338 -170.081873 0.745338 C -170.492466 0.745338 -170.828762 0.412953 -170.828762 -0.00155118 C -170.828762 -0.412145 -170.492466 -0.74844 -170.081873 -0.74844 C -169.667369 -0.74844 -169.334984 -0.412145 -169.334984 -0.00155118 Z M -169.334984 -0.00155118 " transform="matrix(0.998935,0,0,-0.998935,231.506263,231.506263)"/>
<path style="fill-rule:nonzero;fill:rgb(100%,100%,100%);fill-opacity:1;stroke-width:1.19553;stroke-linecap:butt;stroke-linejoin:miter;stroke:rgb(0%,0%,0%);stroke-opacity:1;stroke-miterlimit:10;" d="M 0.74844 170.081873 C 0.74844 170.492466 0.412145 170.828762 0.00155118 170.828762 C -0.412953 170.828762 -0.745338 170.492466 -0.745338 170.081873 C -0.745338 169.667369 -0.412953 169.334984 0.00155118 169.334984 C 0.412145 169.334984 0.74844 169.667369 0.74844 170.081873 Z M 0.74844 170.081873 " transform="matrix(0.998935,0,0,-0.998935,231.506263,231.506263)"/>
<path style="fill-rule:nonzero;fill:rgb(100%,100%,100%);fill-opacity:1;stroke-width:1.19553;stroke-linecap:butt;stroke-linejoin:miter;stroke:rgb(0%,0%,0%);stroke-opacity:1;stroke-miterlimit:10;" d="M 0.74844 -170.081065 C 0.74844 -169.666561 0.412145 -169.334176 0.00155118 -169.334176 C -0.412953 -169.334176 -0.745338 -169.666561 -0.745338 -170.081065 C -0.745338 -170.491658 -0.412953 -170.827954 0.00155118 -170.827954 C 0.412145 -170.827954 0.74844 -170.491658 0.74844 -170.081065 Z M 0.74844 -170.081065 " transform="matrix(0.998935,0,0,-0.998935,231.506263,231.506263)"/>
<path style=" stroke:none;fill-rule:nonzero;fill:rgb(100%,100%,100%);fill-opacity:1;" d="M 224.257812 245.535156 L 238.757812 245.535156 L 238.757812 232.101562 L 224.257812 232.101562 Z M 224.257812 245.535156 "/>
<g style="fill:rgb(0%,0%,0%);fill-opacity:1;">
  <use xlink:href="#glyph0-3" x="227.572456" y="242.219845"/>
</g>
<path style="fill:none;stroke-width:1.19553;stroke-linecap:butt;stroke-linejoin:miter;stroke:rgb(100%,100%,100%);stroke-opacity:1;stroke-miterlimit:10;" d="M 85.041308 -5.66774 L 85.041308 -28.348137 " transform="matrix(0.998935,0,0,-0.998935,231.506263,231.506263)"/>
<path style="fill:none;stroke-width:1.19553;stroke-linecap:butt;stroke-linejoin:miter;stroke:rgb(100%,100%,100%);stroke-opacity:1;stroke-miterlimit:10;" d="M 120.26631 -5.66774 L 120.26631 -28.348137 " transform="matrix(0.998935,0,0,-0.998935,231.506263,231.506263)"/>
<path style="fill:none;stroke-width:1.19553;stroke-linecap:butt;stroke-linejoin:miter;stroke:rgb(100%,100%,100%);stroke-opacity:1;stroke-miterlimit:10;" d="M 147.295087 -5.66774 L 147.295087 -28.348137 " transform="matrix(0.998935,0,0,-0.998935,231.506263,231.506263)"/>
<path style="fill:none;stroke-width:1.19553;stroke-linecap:butt;stroke-linejoin:miter;stroke:rgb(100%,100%,100%);stroke-opacity:1;stroke-miterlimit:10;" d="M -147.295895 -5.66774 L -147.295895 -28.348137 " transform="matrix(0.998935,0,0,-0.998935,231.506263,231.506263)"/>
<path style="fill:none;stroke-width:1.19553;stroke-linecap:butt;stroke-linejoin:miter;stroke:rgb(100%,100%,100%);stroke-opacity:1;stroke-miterlimit:10;" d="M -120.267118 -5.66774 L -120.267118 -28.348137 " transform="matrix(0.998935,0,0,-0.998935,231.506263,231.506263)"/>
<path style="fill:none;stroke-width:1.19553;stroke-linecap:butt;stroke-linejoin:miter;stroke:rgb(100%,100%,100%);stroke-opacity:1;stroke-miterlimit:10;" d="M -85.042116 -5.66774 L -85.042116 -28.348137 " transform="matrix(0.998935,0,0,-0.998935,231.506263,231.506263)"/>
<g style="fill:rgb(0%,0%,0%);fill-opacity:1;">
  <use xlink:href="#glyph0-2" x="312.722703" y="246.698072"/>
</g>
<path style="fill:none;stroke-width:0.398;stroke-linecap:butt;stroke-linejoin:miter;stroke:rgb(0%,0%,0%);stroke-opacity:1;stroke-miterlimit:10;" d="M -0.0000471105 -0.00176747 L 7.472753 -0.00176747 " transform="matrix(0.998935,0,0,-0.998935,312.722703,250.943547)"/>
<g style="fill:rgb(0%,0%,0%);fill-opacity:1;">
  <use xlink:href="#glyph1-4" x="313.967377" y="260.25762"/>
</g>
<g style="fill:rgb(0%,0%,0%);fill-opacity:1;">
  <use xlink:href="#glyph2-2" x="341.275272" y="239.201062"/>
</g>
<path style="fill:none;stroke-width:0.398;stroke-linecap:butt;stroke-linejoin:miter;stroke:rgb(0%,0%,0%);stroke-opacity:1;stroke-miterlimit:10;" d="M 0.001881 -0.00163419 L 4.979837 -0.00163419 " transform="matrix(0.998935,0,0,-0.998935,349.568434,239.002274)"/>
<g style="fill:rgb(0%,0%,0%);fill-opacity:1;">
  <use xlink:href="#glyph1-4" x="349.568434" y="247.434287"/>
</g>
<g style="fill:rgb(0%,0%,0%);fill-opacity:1;">
  <use xlink:href="#glyph0-2" x="354.54443" y="247.434287"/>
</g>
<path style="fill:none;stroke-width:0.398;stroke-linecap:butt;stroke-linejoin:miter;stroke:rgb(0%,0%,0%);stroke-opacity:1;stroke-miterlimit:10;" d="M -0.00183673 -0.000925162 L 20.754637 -0.000925162 " transform="matrix(0.998935,0,0,-0.998935,341.275272,251.678763)"/>
<g style="fill:rgb(0%,0%,0%);fill-opacity:1;">
  <use xlink:href="#glyph1-4" x="349.153875" y="260.992836"/>
</g>
<g style="fill:rgb(0%,0%,0%);fill-opacity:1;">
  <use xlink:href="#glyph2-2" x="368.275496" y="239.201062"/>
</g>
<path style="fill:none;stroke-width:0.398;stroke-linecap:butt;stroke-linejoin:miter;stroke:rgb(0%,0%,0%);stroke-opacity:1;stroke-miterlimit:10;" d="M 0.00165732 -0.00163419 L 4.979613 -0.00163419 " transform="matrix(0.998935,0,0,-0.998935,376.568657,239.002274)"/>
<g style="fill:rgb(0%,0%,0%);fill-opacity:1;">
  <use xlink:href="#glyph1-1" x="376.568657" y="247.434287"/>
</g>
<g style="fill:rgb(0%,0%,0%);fill-opacity:1;">
  <use xlink:href="#glyph0-2" x="381.544654" y="247.434287"/>
</g>
<path style="fill:none;stroke-width:0.398;stroke-linecap:butt;stroke-linejoin:miter;stroke:rgb(0%,0%,0%);stroke-opacity:1;stroke-miterlimit:10;" d="M 0.00185001 -0.000925162 L 20.754413 -0.000925162 " transform="matrix(0.998935,0,0,-0.998935,368.275496,251.678763)"/>
<g style="fill:rgb(0%,0%,0%);fill-opacity:1;">
  <use xlink:href="#glyph1-4" x="376.154099" y="260.992836"/>
</g>
<g style="fill:rgb(0%,0%,0%);fill-opacity:1;">
  <use xlink:href="#glyph2-1" x="137.761176" y="253.430896"/>
</g>
<g style="fill:rgb(0%,0%,0%);fill-opacity:1;">
  <use xlink:href="#glyph0-2" x="146.695653" y="246.698072"/>
</g>
<path style="fill:none;stroke-width:0.398;stroke-linecap:butt;stroke-linejoin:miter;stroke:rgb(0%,0%,0%);stroke-opacity:1;stroke-miterlimit:10;" d="M -0.000341122 -0.00176747 L 7.472459 -0.00176747 " transform="matrix(0.998935,0,0,-0.998935,146.695653,250.943547)"/>
<g style="fill:rgb(0%,0%,0%);fill-opacity:1;">
  <use xlink:href="#glyph1-4" x="147.939328" y="260.25762"/>
</g>
<g style="fill:rgb(0%,0%,0%);fill-opacity:1;">
  <use xlink:href="#glyph2-1" x="95.938749" y="254.166112"/>
</g>
<g style="fill:rgb(0%,0%,0%);fill-opacity:1;">
  <use xlink:href="#glyph2-2" x="104.874226" y="239.201062"/>
</g>
<path style="fill:none;stroke-width:0.398;stroke-linecap:butt;stroke-linejoin:miter;stroke:rgb(0%,0%,0%);stroke-opacity:1;stroke-miterlimit:10;" d="M 0.000582025 -0.00163419 L 4.982448 -0.00163419 " transform="matrix(0.998935,0,0,-0.998935,113.167387,239.002274)"/>
<g style="fill:rgb(0%,0%,0%);fill-opacity:1;">
  <use xlink:href="#glyph1-4" x="113.167387" y="247.434287"/>
</g>
<g style="fill:rgb(0%,0%,0%);fill-opacity:1;">
  <use xlink:href="#glyph0-2" x="118.143384" y="247.434287"/>
</g>
<path style="fill:none;stroke-width:0.398;stroke-linecap:butt;stroke-linejoin:miter;stroke:rgb(0%,0%,0%);stroke-opacity:1;stroke-miterlimit:10;" d="M 0.000774713 -0.000925162 L 20.757248 -0.000925162 " transform="matrix(0.998935,0,0,-0.998935,104.874226,251.678763)"/>
<g style="fill:rgb(0%,0%,0%);fill-opacity:1;">
  <use xlink:href="#glyph1-4" x="112.752829" y="260.992836"/>
</g>
<g style="fill:rgb(0%,0%,0%);fill-opacity:1;">
  <use xlink:href="#glyph2-1" x="68.938526" y="254.166112"/>
</g>
<g style="fill:rgb(0%,0%,0%);fill-opacity:1;">
  <use xlink:href="#glyph2-2" x="77.874003" y="239.201062"/>
</g>
<path style="fill:none;stroke-width:0.398;stroke-linecap:butt;stroke-linejoin:miter;stroke:rgb(0%,0%,0%);stroke-opacity:1;stroke-miterlimit:10;" d="M 0.000805698 -0.00163419 L 4.982672 -0.00163419 " transform="matrix(0.998935,0,0,-0.998935,86.167164,239.002274)"/>
<g style="fill:rgb(0%,0%,0%);fill-opacity:1;">
  <use xlink:href="#glyph1-1" x="86.167164" y="247.434287"/>
</g>
<g style="fill:rgb(0%,0%,0%);fill-opacity:1;">
  <use xlink:href="#glyph0-2" x="91.143161" y="247.434287"/>
</g>
<path style="fill:none;stroke-width:0.398;stroke-linecap:butt;stroke-linejoin:miter;stroke:rgb(0%,0%,0%);stroke-opacity:1;stroke-miterlimit:10;" d="M 0.000998386 -0.000925162 L 20.757472 -0.000925162 " transform="matrix(0.998935,0,0,-0.998935,77.874003,251.678763)"/>
<g style="fill:rgb(0%,0%,0%);fill-opacity:1;">
  <use xlink:href="#glyph1-4" x="85.752606" y="260.992836"/>
</g>
</g>
</svg>
