<?xml version="1.0" encoding="UTF-8"?>
<svg xmlns="http://www.w3.org/2000/svg" xmlns:xlink="http://www.w3.org/1999/xlink" width="180.041pt" height="180.041pt" viewBox="0 0 180.041 180.041" version="1.2">
<defs>
<g>
<symbol overflow="visible" id="glyph0-0">
<path style="stroke:none;" d=""/>
</symbol>
<symbol overflow="visible" id="glyph0-1">
<path style="stroke:none;" d="M 9.171875 -6 C 9.265625 -6.359375 9.28125 -6.453125 10.03125 -6.453125 C 10.25 -6.453125 10.34375 -6.453125 10.34375 -6.65625 C 10.34375 -6.765625 10.25 -6.765625 10.078125 -6.765625 L 8.765625 -6.765625 C 8.515625 -6.765625 8.5 -6.765625 8.375 -6.578125 L 4.765625 -0.9375 L 4 -6.53125 C 3.96875 -6.765625 3.9375 -6.765625 3.6875 -6.765625 L 2.328125 -6.765625 C 2.140625 -6.765625 2.03125 -6.765625 2.03125 -6.578125 C 2.03125 -6.453125 2.125 -6.453125 2.3125 -6.453125 C 2.453125 -6.453125 2.625 -6.453125 2.75 -6.4375 C 2.90625 -6.421875 2.96875 -6.390625 2.96875 -6.28125 C 2.96875 -6.234375 2.953125 -6.21875 2.921875 -6.09375 L 1.671875 -1.046875 C 1.5625 -0.65625 1.390625 -0.34375 0.59375 -0.3125 C 0.546875 -0.3125 0.421875 -0.296875 0.421875 -0.125 C 0.421875 -0.03125 0.46875 0 0.5625 0 C 0.875 0 1.21875 -0.03125 1.546875 -0.03125 C 1.875 -0.03125 2.234375 0 2.5625 0 C 2.609375 0 2.75 0 2.75 -0.203125 C 2.75 -0.3125 2.640625 -0.3125 2.5625 -0.3125 C 2 -0.3125 1.890625 -0.515625 1.890625 -0.75 C 1.890625 -0.8125 1.90625 -0.859375 1.9375 -0.96875 L 3.28125 -6.375 L 4.140625 -0.234375 C 4.15625 -0.109375 4.171875 0 4.296875 0 C 4.390625 0 4.453125 -0.109375 4.5 -0.171875 L 8.515625 -6.453125 L 7.109375 -0.765625 C 7 -0.390625 6.984375 -0.3125 6.203125 -0.3125 C 6.03125 -0.3125 5.921875 -0.3125 5.921875 -0.125 C 5.921875 0 6.046875 0 6.078125 0 C 6.34375 0 7.03125 -0.03125 7.296875 -0.03125 C 7.703125 -0.03125 8.140625 0 8.546875 0 C 8.59375 0 8.734375 0 8.734375 -0.203125 C 8.734375 -0.3125 8.640625 -0.3125 8.453125 -0.3125 C 8.078125 -0.3125 7.8125 -0.3125 7.8125 -0.484375 C 7.8125 -0.53125 7.8125 -0.546875 7.859375 -0.71875 Z M 9.171875 -6 "/>
</symbol>
<symbol overflow="visible" id="glyph0-2">
<path style="stroke:none;" d="M 4.640625 -3.6875 C 4.640625 -4.21875 4.375 -4.375 4.203125 -4.375 C 3.953125 -4.375 3.71875 -4.125 3.71875 -3.90625 C 3.71875 -3.78125 3.765625 -3.71875 3.875 -3.609375 C 4.078125 -3.40625 4.203125 -3.15625 4.203125 -2.796875 C 4.203125 -2.375 3.609375 -0.109375 2.453125 -0.109375 C 1.9375 -0.109375 1.71875 -0.453125 1.71875 -0.96875 C 1.71875 -1.53125 1.984375 -2.25 2.28125 -3.078125 C 2.359375 -3.234375 2.40625 -3.375 2.40625 -3.5625 C 2.40625 -4.015625 2.09375 -4.375 1.59375 -4.375 C 0.65625 -4.375 0.28125 -2.9375 0.28125 -2.859375 C 0.28125 -2.75 0.390625 -2.75 0.40625 -2.75 C 0.5 -2.75 0.515625 -2.78125 0.5625 -2.9375 C 0.859375 -3.9375 1.28125 -4.15625 1.5625 -4.15625 C 1.640625 -4.15625 1.8125 -4.15625 1.8125 -3.84375 C 1.8125 -3.59375 1.71875 -3.328125 1.640625 -3.15625 C 1.203125 -2 1.078125 -1.546875 1.078125 -1.125 C 1.078125 -0.046875 1.953125 0.109375 2.40625 0.109375 C 4.078125 0.109375 4.640625 -3.171875 4.640625 -3.6875 Z M 4.640625 -3.6875 "/>
</symbol>
<symbol overflow="visible" id="glyph0-3">
<path style="stroke:none;" d="M 2.625 -3.6875 L 3.75 -3.6875 C 3.421875 -2.234375 3.328125 -1.796875 3.328125 -1.140625 C 3.328125 -0.984375 3.328125 -0.71875 3.40625 -0.390625 C 3.5 0.046875 3.609375 0.109375 3.765625 0.109375 C 3.96875 0.109375 4.171875 -0.0625 4.171875 -0.265625 C 4.171875 -0.328125 4.171875 -0.34375 4.109375 -0.484375 C 3.828125 -1.203125 3.828125 -1.84375 3.828125 -2.125 C 3.828125 -2.640625 3.890625 -3.1875 4 -3.6875 L 5.125 -3.6875 C 5.265625 -3.6875 5.609375 -3.6875 5.609375 -4.03125 C 5.609375 -4.265625 5.40625 -4.265625 5.21875 -4.265625 L 1.90625 -4.265625 C 1.6875 -4.265625 1.3125 -4.265625 0.875 -3.796875 C 0.53125 -3.421875 0.265625 -2.96875 0.265625 -2.90625 C 0.265625 -2.90625 0.265625 -2.8125 0.390625 -2.8125 C 0.46875 -2.8125 0.484375 -2.859375 0.546875 -2.9375 C 1.03125 -3.6875 1.609375 -3.6875 1.796875 -3.6875 L 2.375 -3.6875 C 2.046875 -2.5 1.515625 -1.296875 1.09375 -0.390625 C 1.015625 -0.25 1.015625 -0.234375 1.015625 -0.15625 C 1.015625 0.03125 1.171875 0.109375 1.3125 0.109375 C 1.609375 0.109375 1.6875 -0.171875 1.796875 -0.53125 C 1.9375 -0.984375 1.9375 -1.015625 2.078125 -1.5 Z M 2.625 -3.6875 "/>
</symbol>
<symbol overflow="visible" id="glyph1-0">
<path style="stroke:none;" d=""/>
</symbol>
<symbol overflow="visible" id="glyph1-1">
<path style="stroke:none;" d="M 3.5 -1.265625 L 3.265625 -1.265625 C 3.25 -1.109375 3.171875 -0.703125 3.09375 -0.625 C 3.03125 -0.59375 2.5 -0.59375 2.40625 -0.59375 L 1.125 -0.59375 C 1.859375 -1.234375 2.09375 -1.421875 2.515625 -1.75 C 3.03125 -2.171875 3.5 -2.59375 3.5 -3.25 C 3.5 -4.09375 2.765625 -4.609375 1.875 -4.609375 C 1.015625 -4.609375 0.4375 -4 0.4375 -3.359375 C 0.4375 -3.015625 0.734375 -2.96875 0.8125 -2.96875 C 0.96875 -2.96875 1.171875 -3.09375 1.171875 -3.34375 C 1.171875 -3.46875 1.125 -3.71875 0.765625 -3.71875 C 0.984375 -4.203125 1.453125 -4.359375 1.78125 -4.359375 C 2.46875 -4.359375 2.828125 -3.8125 2.828125 -3.25 C 2.828125 -2.65625 2.40625 -2.171875 2.171875 -1.921875 L 0.5 -0.265625 C 0.4375 -0.203125 0.4375 -0.1875 0.4375 0 L 3.296875 0 Z M 3.5 -1.265625 "/>
</symbol>
<symbol overflow="visible" id="glyph1-2">
<path style="stroke:none;" d="M 1.890625 -2.3125 C 2.4375 -2.3125 2.828125 -1.9375 2.828125 -1.203125 C 2.828125 -0.34375 2.328125 -0.078125 1.921875 -0.078125 C 1.640625 -0.078125 1.03125 -0.15625 0.75 -0.5625 C 1.0625 -0.578125 1.140625 -0.8125 1.140625 -0.953125 C 1.140625 -1.171875 0.984375 -1.34375 0.765625 -1.34375 C 0.5625 -1.34375 0.375 -1.21875 0.375 -0.9375 C 0.375 -0.28125 1.09375 0.140625 1.9375 0.140625 C 2.90625 0.140625 3.5625 -0.5 3.5625 -1.203125 C 3.5625 -1.734375 3.125 -2.28125 2.359375 -2.4375 C 3.09375 -2.703125 3.34375 -3.21875 3.34375 -3.65625 C 3.34375 -4.203125 2.71875 -4.609375 1.953125 -4.609375 C 1.171875 -4.609375 0.59375 -4.234375 0.59375 -3.671875 C 0.59375 -3.4375 0.75 -3.3125 0.953125 -3.3125 C 1.171875 -3.3125 1.296875 -3.46875 1.296875 -3.65625 C 1.296875 -3.859375 1.171875 -4.015625 0.953125 -4.03125 C 1.1875 -4.328125 1.671875 -4.40625 1.921875 -4.40625 C 2.234375 -4.40625 2.671875 -4.25 2.671875 -3.65625 C 2.671875 -3.359375 2.578125 -3.03125 2.40625 -2.828125 C 2.171875 -2.5625 1.984375 -2.546875 1.625 -2.53125 C 1.453125 -2.515625 1.4375 -2.515625 1.40625 -2.5 C 1.390625 -2.5 1.34375 -2.484375 1.34375 -2.421875 C 1.34375 -2.3125 1.40625 -2.3125 1.515625 -2.3125 Z M 1.890625 -2.3125 "/>
</symbol>
<symbol overflow="visible" id="glyph1-3">
<path style="stroke:none;" d="M 3.671875 -1.140625 L 3.671875 -1.390625 L 2.90625 -1.390625 L 2.90625 -4.484375 C 2.90625 -4.625 2.90625 -4.671875 2.75 -4.671875 C 2.65625 -4.671875 2.640625 -4.671875 2.5625 -4.578125 L 0.265625 -1.390625 L 0.265625 -1.140625 L 2.3125 -1.140625 L 2.3125 -0.5625 C 2.3125 -0.328125 2.3125 -0.25 1.75 -0.25 L 1.5625 -0.25 L 1.5625 0 C 1.90625 -0.015625 2.359375 -0.03125 2.609375 -0.03125 C 2.859375 -0.03125 3.296875 -0.015625 3.65625 0 L 3.65625 -0.25 L 3.46875 -0.25 C 2.90625 -0.25 2.90625 -0.328125 2.90625 -0.5625 L 2.90625 -1.140625 Z M 2.359375 -3.921875 L 2.359375 -1.390625 L 0.53125 -1.390625 Z M 2.359375 -3.921875 "/>
</symbol>
<symbol overflow="visible" id="glyph1-4">
<path style="stroke:none;" d="M 2.328125 -4.40625 C 2.328125 -4.59375 2.3125 -4.609375 2.109375 -4.609375 C 1.671875 -4.171875 1.046875 -4.15625 0.75 -4.15625 L 0.75 -3.90625 C 0.921875 -3.90625 1.375 -3.90625 1.765625 -4.109375 L 1.765625 -0.5625 C 1.765625 -0.34375 1.765625 -0.25 1.0625 -0.25 L 0.8125 -0.25 L 0.8125 0 C 0.921875 0 1.78125 -0.03125 2.046875 -0.03125 C 2.25 -0.03125 3.125 0 3.28125 0 L 3.28125 -0.25 L 3.015625 -0.25 C 2.328125 -0.25 2.328125 -0.34375 2.328125 -0.5625 Z M 2.328125 -4.40625 "/>
</symbol>
<symbol overflow="visible" id="glyph2-0">
<path style="stroke:none;" d=""/>
</symbol>
<symbol overflow="visible" id="glyph2-1">
<path style="stroke:none;" d="M 2.90625 -6.34375 C 2.90625 -6.578125 2.90625 -6.59375 2.6875 -6.59375 C 2.078125 -5.96875 1.203125 -5.96875 0.875 -5.96875 L 0.875 -5.65625 C 1.078125 -5.65625 1.671875 -5.65625 2.171875 -5.90625 L 2.171875 -0.78125 C 2.171875 -0.421875 2.15625 -0.3125 1.265625 -0.3125 L 0.9375 -0.3125 L 0.9375 0 C 1.28125 -0.03125 2.15625 -0.03125 2.546875 -0.03125 C 2.9375 -0.03125 3.796875 -0.03125 4.15625 0 L 4.15625 -0.3125 L 3.828125 -0.3125 C 2.9375 -0.3125 2.90625 -0.421875 2.90625 -0.78125 Z M 2.90625 -6.34375 "/>
</symbol>
<symbol overflow="visible" id="glyph2-2">
<path style="stroke:none;" d="M 1.3125 -3.25 L 1.3125 -3.484375 C 1.3125 -6 2.53125 -6.34375 3.046875 -6.34375 C 3.28125 -6.34375 3.6875 -6.296875 3.90625 -5.953125 C 3.765625 -5.953125 3.375 -5.953125 3.375 -5.515625 C 3.375 -5.203125 3.609375 -5.046875 3.828125 -5.046875 C 3.984375 -5.046875 4.28125 -5.140625 4.28125 -5.53125 C 4.28125 -6.125 3.84375 -6.59375 3.015625 -6.59375 C 1.75 -6.59375 0.421875 -5.3125 0.421875 -3.125 C 0.421875 -0.484375 1.5625 0.21875 2.484375 0.21875 C 3.59375 0.21875 4.53125 -0.71875 4.53125 -2.015625 C 4.53125 -3.28125 3.640625 -4.234375 2.546875 -4.234375 C 1.875 -4.234375 1.5 -3.71875 1.3125 -3.25 Z M 2.484375 -0.0625 C 1.859375 -0.0625 1.5625 -0.65625 1.5 -0.796875 C 1.328125 -1.265625 1.328125 -2.0625 1.328125 -2.234375 C 1.328125 -3.015625 1.640625 -4 2.53125 -4 C 2.6875 -4 3.15625 -4 3.453125 -3.390625 C 3.640625 -3.015625 3.640625 -2.515625 3.640625 -2.03125 C 3.640625 -1.5625 3.640625 -1.0625 3.46875 -0.703125 C 3.171875 -0.109375 2.71875 -0.0625 2.484375 -0.0625 Z M 2.484375 -0.0625 "/>
</symbol>
<symbol overflow="visible" id="glyph2-3">
<path style="stroke:none;" d="M 1.609375 -4.53125 C 1.15625 -4.828125 1.125 -5.15625 1.125 -5.328125 C 1.125 -5.9375 1.765625 -6.34375 2.46875 -6.34375 C 3.1875 -6.34375 3.828125 -5.828125 3.828125 -5.125 C 3.828125 -4.5625 3.4375 -4.078125 2.84375 -3.734375 Z M 3.0625 -3.59375 C 3.78125 -3.953125 4.265625 -4.46875 4.265625 -5.125 C 4.265625 -6.03125 3.375 -6.59375 2.484375 -6.59375 C 1.484375 -6.59375 0.6875 -5.859375 0.6875 -4.9375 C 0.6875 -4.765625 0.703125 -4.3125 1.125 -3.859375 C 1.234375 -3.734375 1.59375 -3.484375 1.84375 -3.3125 C 1.265625 -3.03125 0.421875 -2.484375 0.421875 -1.5 C 0.421875 -0.453125 1.421875 0.21875 2.46875 0.21875 C 3.59375 0.21875 4.53125 -0.609375 4.53125 -1.671875 C 4.53125 -2.015625 4.421875 -2.46875 4.046875 -2.875 C 3.859375 -3.09375 3.6875 -3.1875 3.0625 -3.59375 Z M 2.078125 -3.171875 L 3.28125 -2.390625 C 3.5625 -2.203125 4.03125 -1.90625 4.03125 -1.3125 C 4.03125 -0.578125 3.28125 -0.0625 2.484375 -0.0625 C 1.625 -0.0625 0.90625 -0.671875 0.90625 -1.5 C 0.90625 -2.078125 1.234375 -2.703125 2.078125 -3.171875 Z M 2.078125 -3.171875 "/>
</symbol>
<symbol overflow="visible" id="glyph2-4">
<path style="stroke:none;" d="M 1.265625 -0.765625 L 2.3125 -1.78125 C 3.859375 -3.15625 4.453125 -3.6875 4.453125 -4.671875 C 4.453125 -5.8125 3.5625 -6.59375 2.34375 -6.59375 C 1.234375 -6.59375 0.5 -5.6875 0.5 -4.796875 C 0.5 -4.25 0.984375 -4.25 1.015625 -4.25 C 1.1875 -4.25 1.53125 -4.375 1.53125 -4.78125 C 1.53125 -5.03125 1.359375 -5.296875 1.015625 -5.296875 C 0.9375 -5.296875 0.90625 -5.296875 0.875 -5.28125 C 1.109375 -5.921875 1.640625 -6.296875 2.21875 -6.296875 C 3.125 -6.296875 3.546875 -5.484375 3.546875 -4.671875 C 3.546875 -3.890625 3.046875 -3.09375 2.5 -2.484375 L 0.609375 -0.359375 C 0.5 -0.25 0.5 -0.234375 0.5 0 L 4.171875 0 L 4.453125 -1.71875 L 4.203125 -1.71875 C 4.15625 -1.421875 4.078125 -0.984375 3.984375 -0.84375 C 3.90625 -0.765625 3.265625 -0.765625 3.046875 -0.765625 Z M 1.265625 -0.765625 "/>
</symbol>
<symbol overflow="visible" id="glyph3-0">
<path style="stroke:none;" d=""/>
</symbol>
<symbol overflow="visible" id="glyph3-1">
<path style="stroke:none;" d="M 6.53125 -2.28125 C 6.703125 -2.28125 6.875 -2.28125 6.875 -2.484375 C 6.875 -2.671875 6.703125 -2.671875 6.53125 -2.671875 L 1.171875 -2.671875 C 1 -2.671875 0.828125 -2.671875 0.828125 -2.484375 C 0.828125 -2.28125 1 -2.28125 1.171875 -2.28125 Z M 6.53125 -2.28125 "/>
</symbol>
<symbol overflow="visible" id="glyph3-2">
<path style="stroke:none;" d="M 3.859375 8.46875 L 2.109375 4.609375 C 2.046875 4.453125 1.984375 4.453125 1.96875 4.453125 C 1.953125 4.453125 1.90625 4.453125 1.796875 4.53125 L 0.859375 5.25 C 0.71875 5.34375 0.71875 5.375 0.71875 5.40625 C 0.71875 5.453125 0.75 5.515625 0.828125 5.515625 C 0.875 5.515625 1.046875 5.375 1.15625 5.296875 C 1.21875 5.25 1.359375 5.140625 1.46875 5.0625 L 3.421875 9.34375 C 3.5 9.515625 3.546875 9.515625 3.640625 9.515625 C 3.78125 9.515625 3.8125 9.453125 3.890625 9.3125 L 8.375 0 C 8.453125 -0.140625 8.453125 -0.171875 8.453125 -0.203125 C 8.453125 -0.296875 8.375 -0.390625 8.25 -0.390625 C 8.171875 -0.390625 8.109375 -0.34375 8.03125 -0.1875 Z M 3.859375 8.46875 "/>
</symbol>
</g>
</defs>
<g id="surface1">
<path style="fill:none;stroke-width:0.79701;stroke-linecap:butt;stroke-linejoin:miter;stroke:rgb(0%,0%,0%);stroke-opacity:1;stroke-miterlimit:10;" d="M 56.693846 0.000074851 C 56.693846 31.310499 31.313277 56.694995 -0.00107485 56.694995 C -31.311499 56.694995 -56.692068 31.310499 -56.692068 0.000074851 C -56.692068 -31.31035 -31.311499 -56.694846 -0.00107485 -56.694846 C 31.313277 -56.694846 56.693846 -31.31035 56.693846 0.000074851 Z M 56.693846 0.000074851 " transform="matrix(0.994702,0,0,-0.994702,89.544038,89.543043)"/>
<path style="fill:none;stroke-width:0.19925;stroke-linecap:round;stroke-linejoin:miter;stroke:rgb(0%,0%,0%);stroke-opacity:1;stroke-dasharray:2.98883,2.98883;stroke-miterlimit:10;" d="M -40.088472 -40.087322 L -40.088472 40.087472 " transform="matrix(0.994702,0,0,-0.994702,89.544038,89.543043)"/>
<path style="fill:none;stroke-width:0.19925;stroke-linecap:round;stroke-linejoin:miter;stroke:rgb(0%,0%,0%);stroke-opacity:1;stroke-dasharray:2.98883,2.98883;stroke-miterlimit:10;" d="M 40.090249 -40.087322 L 40.090249 40.087472 " transform="matrix(0.994702,0,0,-0.994702,89.544038,89.543043)"/>
<path style="fill:none;stroke-width:0.19925;stroke-linecap:round;stroke-linejoin:miter;stroke:rgb(0%,0%,0%);stroke-opacity:1;stroke-miterlimit:10;" d="M -0.00107485 70.867744 L -0.00107485 -70.867594 " transform="matrix(0.994702,0,0,-0.994702,89.544038,89.543043)"/>
<path style="fill:none;stroke-width:0.19925;stroke-linecap:round;stroke-linejoin:miter;stroke:rgb(0%,0%,0%);stroke-opacity:1;stroke-miterlimit:10;" d="M -70.868744 0.000074851 L 70.089037 0.000074851 " transform="matrix(0.994702,0,0,-0.994702,89.544038,89.543043)"/>
<path style="fill-rule:nonzero;fill:rgb(0%,0%,0%);fill-opacity:1;stroke-width:0.19925;stroke-linecap:round;stroke-linejoin:round;stroke:rgb(0%,0%,0%);stroke-opacity:1;stroke-miterlimit:10;" d="M 0.678477 0.000074851 C -0.169767 0.168938 -1.018011 0.506665 -2.031192 1.099651 C -1.018011 0.337802 -1.018011 -0.337652 -2.031192 -1.099501 C -1.018011 -0.506515 -0.169767 -0.168789 0.678477 0.000074851 Z M 0.678477 0.000074851 " transform="matrix(0.994702,0,0,-0.994702,159.262617,89.543043)"/>
<path style="fill:none;stroke-width:0.19925;stroke-linecap:round;stroke-linejoin:miter;stroke:rgb(0%,0%,100%);stroke-opacity:1;stroke-miterlimit:10;" d="M -0.00107485 0.000074851 L -39.538684 -39.537534 " transform="matrix(0.994702,0,0,-0.994702,89.544038,89.543043)"/>
<path style="fill-rule:nonzero;fill:rgb(0%,0%,100%);fill-opacity:1;stroke-width:0.19925;stroke-linecap:round;stroke-linejoin:round;stroke:rgb(0%,0%,100%);stroke-opacity:1;stroke-miterlimit:10;" d="M 0.676297 -0.00081297 C -0.17065 0.168576 -1.01482 0.507355 -2.031156 1.101606 C -1.017597 0.337966 -1.017597 -0.339592 -2.033933 -1.100456 C -1.01482 -0.508981 -0.17065 -0.170202 0.676297 -0.00081297 Z M 0.676297 -0.00081297 " transform="matrix(-0.703354,0.703354,0.703354,0.703354,50.214529,128.872552)"/>
<path style="fill:none;stroke-width:0.19925;stroke-linecap:round;stroke-linejoin:miter;stroke:rgb(0%,0%,100%);stroke-opacity:1;stroke-miterlimit:10;" d="M -0.00107485 0.000074851 L 39.540461 -39.537534 " transform="matrix(0.994702,0,0,-0.994702,89.544038,89.543043)"/>
<path style="fill-rule:nonzero;fill:rgb(0%,0%,100%);fill-opacity:1;stroke-width:0.19925;stroke-linecap:round;stroke-linejoin:round;stroke:rgb(0%,0%,100%);stroke-opacity:1;stroke-miterlimit:10;" d="M 0.677554 0.00206976 C -0.169393 0.171459 -1.01634 0.507461 -2.032676 1.101712 C -1.01634 0.340849 -1.01634 -0.336709 -2.032676 -1.103127 C -1.01634 -0.508875 -0.169393 -0.16732 0.677554 0.00206976 Z M 0.677554 0.00206976 " transform="matrix(0.703354,0.703354,0.703354,-0.703354,128.873547,128.872552)"/>
<path style="fill:none;stroke-width:0.19925;stroke-linecap:round;stroke-linejoin:miter;stroke:rgb(0%,0%,100%);stroke-opacity:1;stroke-miterlimit:10;" d="M -0.00107485 0.000074851 L -39.538684 39.537684 " transform="matrix(0.994702,0,0,-0.994702,89.544038,89.543043)"/>
<path style="fill-rule:nonzero;fill:rgb(0%,0%,100%);fill-opacity:1;stroke-width:0.19925;stroke-linecap:round;stroke-linejoin:round;stroke:rgb(0%,0%,100%);stroke-opacity:1;stroke-miterlimit:10;" d="M 0.676403 0.000707114 C -0.170544 0.170097 -1.014714 0.508875 -2.033827 1.10035 C -1.017491 0.339486 -1.017491 -0.338072 -2.03105 -1.101712 C -1.014714 -0.507461 -0.170544 -0.168682 0.676403 0.000707114 Z M 0.676403 0.000707114 " transform="matrix(-0.703354,-0.703354,-0.703354,0.703354,50.214529,50.213534)"/>
<path style="fill:none;stroke-width:0.19925;stroke-linecap:round;stroke-linejoin:miter;stroke:rgb(0%,0%,100%);stroke-opacity:1;stroke-miterlimit:10;" d="M -0.00107485 0.000074851 L 39.540461 39.537684 " transform="matrix(0.994702,0,0,-0.994702,89.544038,89.543043)"/>
<path style="fill-rule:nonzero;fill:rgb(0%,0%,100%);fill-opacity:1;stroke-width:0.19925;stroke-linecap:round;stroke-linejoin:round;stroke:rgb(0%,0%,100%);stroke-opacity:1;stroke-miterlimit:10;" d="M 0.67766 -0.00196391 C -0.169287 0.167425 -1.016234 0.508981 -2.03257 1.103232 C -1.016234 0.336815 -1.016234 -0.340743 -2.03257 -1.101606 C -1.016234 -0.507355 -0.169287 -0.171353 0.67766 -0.00196391 Z M 0.67766 -0.00196391 " transform="matrix(0.703354,-0.703354,-0.703354,-0.703354,128.873547,50.213534)"/>
<path style="fill-rule:nonzero;fill:rgb(89.99939%,89.99939%,89.99939%);fill-opacity:1;stroke-width:0.79701;stroke-linecap:butt;stroke-linejoin:miter;stroke:rgb(0%,0%,0%);stroke-opacity:1;stroke-miterlimit:10;" d="M 1.495134 0.000074851 C 1.495134 0.824757 0.823607 1.496284 -0.00107485 1.496284 C -0.825757 1.496284 -1.493356 0.824757 -1.493356 0.000074851 C -1.493356 -0.824607 -0.825757 -1.496134 -0.00107485 -1.496134 C 0.823607 -1.496134 1.495134 -0.824607 1.495134 0.000074851 Z M 1.495134 0.000074851 " transform="matrix(0.994702,0,0,-0.994702,89.544038,89.543043)"/>
<path style="fill-rule:nonzero;fill:rgb(89.99939%,89.99939%,89.99939%);fill-opacity:1;stroke-width:0.79701;stroke-linecap:butt;stroke-linejoin:miter;stroke:rgb(0%,0%,0%);stroke-opacity:1;stroke-miterlimit:10;" d="M -38.592263 -40.087322 C -38.592263 -39.26264 -39.26379 -38.59504 -40.088472 -38.59504 C -40.913154 -38.59504 -41.58468 -39.26264 -41.58468 -40.087322 C -41.58468 -40.912004 -40.913154 -41.583531 -40.088472 -41.583531 C -39.26379 -41.583531 -38.592263 -40.912004 -38.592263 -40.087322 Z M -38.592263 -40.087322 " transform="matrix(0.994702,0,0,-0.994702,89.544038,89.543043)"/>
<path style="fill-rule:nonzero;fill:rgb(89.99939%,89.99939%,89.99939%);fill-opacity:1;stroke-width:0.79701;stroke-linecap:butt;stroke-linejoin:miter;stroke:rgb(0%,0%,0%);stroke-opacity:1;stroke-miterlimit:10;" d="M 41.582531 0.000074851 C 41.582531 0.824757 40.914931 1.496284 40.090249 1.496284 C 39.26164 1.496284 38.59404 0.824757 38.59404 0.000074851 C 38.59404 -0.824607 39.26164 -1.496134 40.090249 -1.496134 C 40.914931 -1.496134 41.582531 -0.824607 41.582531 0.000074851 Z M 41.582531 0.000074851 " transform="matrix(0.994702,0,0,-0.994702,89.544038,89.543043)"/>
<path style="fill-rule:nonzero;fill:rgb(89.99939%,89.99939%,89.99939%);fill-opacity:1;stroke-width:0.79701;stroke-linecap:butt;stroke-linejoin:miter;stroke:rgb(0%,0%,0%);stroke-opacity:1;stroke-miterlimit:10;" d="M -38.592263 40.087472 C -38.592263 40.912154 -39.26379 41.58368 -40.088472 41.58368 C -40.913154 41.58368 -41.58468 40.912154 -41.58468 40.087472 C -41.58468 39.26279 -40.913154 38.59519 -40.088472 38.59519 C -39.26379 38.59519 -38.592263 39.26279 -38.592263 40.087472 Z M -38.592263 40.087472 " transform="matrix(0.994702,0,0,-0.994702,89.544038,89.543043)"/>
<path style="fill-rule:nonzero;fill:rgb(89.99939%,89.99939%,89.99939%);fill-opacity:1;stroke-width:0.79701;stroke-linecap:butt;stroke-linejoin:miter;stroke:rgb(0%,0%,0%);stroke-opacity:1;stroke-miterlimit:10;" d="M 41.582531 -40.087322 C 41.582531 -39.26264 40.914931 -38.59504 40.090249 -38.59504 C 39.26164 -38.59504 38.59404 -39.26264 38.59404 -40.087322 C 38.59404 -40.912004 39.26164 -41.583531 40.090249 -41.583531 C 40.914931 -41.583531 41.582531 -40.912004 41.582531 -40.087322 Z M 41.582531 -40.087322 " transform="matrix(0.994702,0,0,-0.994702,89.544038,89.543043)"/>
<path style="fill-rule:nonzero;fill:rgb(89.99939%,89.99939%,89.99939%);fill-opacity:1;stroke-width:0.79701;stroke-linecap:butt;stroke-linejoin:miter;stroke:rgb(0%,0%,0%);stroke-opacity:1;stroke-miterlimit:10;" d="M 41.582531 40.087472 C 41.582531 40.912154 40.914931 41.58368 40.090249 41.58368 C 39.26164 41.58368 38.59404 40.912154 38.59404 40.087472 C 38.59404 39.26279 39.26164 38.59519 40.090249 38.59519 C 40.914931 38.59519 41.582531 39.26279 41.582531 40.087472 Z M 41.582531 40.087472 " transform="matrix(0.994702,0,0,-0.994702,89.544038,89.543043)"/>
<path style="fill-rule:nonzero;fill:rgb(89.99939%,89.99939%,89.99939%);fill-opacity:1;stroke-width:0.79701;stroke-linecap:butt;stroke-linejoin:miter;stroke:rgb(0%,0%,0%);stroke-opacity:1;stroke-miterlimit:10;" d="M -38.592263 0.000074851 C -38.592263 0.824757 -39.26379 1.496284 -40.088472 1.496284 C -40.913154 1.496284 -41.58468 0.824757 -41.58468 0.000074851 C -41.58468 -0.824607 -40.913154 -1.496134 -40.088472 -1.496134 C -39.26379 -1.496134 -38.592263 -0.824607 -38.592263 0.000074851 Z M -38.592263 0.000074851 " transform="matrix(0.994702,0,0,-0.994702,89.544038,89.543043)"/>
<path style="fill:none;stroke-width:0.79701;stroke-linecap:butt;stroke-linejoin:miter;stroke:rgb(0%,0%,0%);stroke-opacity:1;stroke-miterlimit:10;" d="M -14.032449 14.031449 C -21.438878 6.621093 -21.764824 -5.18364 -15.010286 -12.978848 " transform="matrix(0.994702,0,0,-0.994702,89.544038,89.543043)"/>
<path style="fill-rule:nonzero;fill:rgb(0%,0%,0%);fill-opacity:1;stroke-width:0.79701;stroke-linecap:butt;stroke-linejoin:round;stroke:rgb(0%,0%,0%);stroke-opacity:1;stroke-miterlimit:10;" d="M 1.036491 -0.000575537 C -0.260531 0.257744 -1.553628 0.776802 -3.107608 1.683146 C -1.555141 0.519162 -1.554994 -0.516222 -3.107994 -1.686157 C -1.553408 -0.776274 -0.260458 -0.259948 1.036491 -0.000575537 Z M 1.036491 -0.000575537 " transform="matrix(0.611075,0.78482,0.78482,-0.611075,74.710828,102.37369)"/>
<path style="fill:none;stroke-width:0.79701;stroke-linecap:butt;stroke-linejoin:miter;stroke:rgb(0%,0%,0%);stroke-opacity:1;stroke-miterlimit:10;" d="M 14.030299 -14.031299 C 21.440656 -6.620943 21.766602 5.18379 15.008137 12.978998 " transform="matrix(0.994702,0,0,-0.994702,89.544038,89.543043)"/>
<path style="fill-rule:nonzero;fill:rgb(0%,0%,0%);fill-opacity:1;stroke-width:0.79701;stroke-linecap:butt;stroke-linejoin:round;stroke:rgb(0%,0%,0%);stroke-opacity:1;stroke-miterlimit:10;" d="M 1.03793 0.00102874 C -0.259093 0.259348 -1.554602 0.775308 -3.108581 1.681652 C -1.556115 0.517668 -1.555968 -0.517716 -3.106555 -1.684553 C -1.554382 -0.777768 -0.259019 -0.258344 1.03793 0.00102874 Z M 1.03793 0.00102874 " transform="matrix(-0.611075,-0.78482,-0.78482,0.611075,104.377248,76.712396)"/>
<g style="fill:rgb(0%,0%,0%);fill-opacity:1;">
  <use xlink:href="#glyph0-1" x="31.910029" y="139.888873"/>
</g>
<g style="fill:rgb(0%,0%,0%);fill-opacity:1;">
  <use xlink:href="#glyph1-1" x="41.523821" y="141.375952"/>
</g>
<g style="fill:rgb(0%,0%,0%);fill-opacity:1;">
  <use xlink:href="#glyph0-1" x="133.117939" y="139.888873"/>
</g>
<g style="fill:rgb(0%,0%,0%);fill-opacity:1;">
  <use xlink:href="#glyph1-2" x="142.73173" y="141.375952"/>
</g>
<g style="fill:rgb(0%,0%,0%);fill-opacity:1;">
  <use xlink:href="#glyph0-1" x="133.117939" y="44.483058"/>
</g>
<g style="fill:rgb(0%,0%,0%);fill-opacity:1;">
  <use xlink:href="#glyph1-3" x="142.73173" y="45.969142"/>
</g>
<g style="fill:rgb(0%,0%,0%);fill-opacity:1;">
  <use xlink:href="#glyph0-1" x="31.910029" y="44.483058"/>
</g>
<g style="fill:rgb(0%,0%,0%);fill-opacity:1;">
  <use xlink:href="#glyph1-4" x="41.523821" y="45.969142"/>
</g>
<g style="fill:rgb(0%,0%,0%);fill-opacity:1;">
  <use xlink:href="#glyph0-2" x="163.732866" y="97.508614"/>
</g>
<g style="fill:rgb(0%,0%,0%);fill-opacity:1;">
  <use xlink:href="#glyph2-1" x="149.63496" y="85.844742"/>
  <use xlink:href="#glyph2-2" x="154.589867" y="85.844742"/>
</g>
<g style="fill:rgb(0%,0%,0%);fill-opacity:1;">
  <use xlink:href="#glyph0-3" x="159.544774" y="85.844742"/>
</g>
<g style="fill:rgb(0%,0%,0%);fill-opacity:1;">
  <use xlink:href="#glyph3-1" x="33.728344" y="102.232452"/>
</g>
<g style="fill:rgb(0%,0%,0%);fill-opacity:1;">
  <use xlink:href="#glyph2-3" x="41.436198" y="102.232452"/>
</g>
<g style="fill:rgb(0%,0%,0%);fill-opacity:1;">
  <use xlink:href="#glyph0-3" x="46.391105" y="102.232452"/>
</g>
<g style="fill:rgb(0%,0%,0%);fill-opacity:1;">
  <use xlink:href="#glyph3-2" x="52.394915" y="94.034121"/>
</g>
<path style="fill:none;stroke-width:0.398;stroke-linecap:butt;stroke-linejoin:miter;stroke:rgb(0%,0%,0%);stroke-opacity:1;stroke-miterlimit:10;" d="M -0.000587629 0.000239326 L 4.982848 0.000239326 " transform="matrix(0.994702,0,0,-0.994702,60.652928,93.836176)"/>
<g style="fill:rgb(0%,0%,0%);fill-opacity:1;">
  <use xlink:href="#glyph2-4" x="60.652928" y="102.232452"/>
</g>
<g style="fill:rgb(0%,0%,0%);fill-opacity:1;">
  <use xlink:href="#glyph2-3" x="117.333018" y="102.232452"/>
</g>
<g style="fill:rgb(0%,0%,0%);fill-opacity:1;">
  <use xlink:href="#glyph0-3" x="122.287925" y="102.232452"/>
</g>
<g style="fill:rgb(0%,0%,0%);fill-opacity:1;">
  <use xlink:href="#glyph3-2" x="128.292641" y="94.034121"/>
</g>
<path style="fill:none;stroke-width:0.398;stroke-linecap:butt;stroke-linejoin:miter;stroke:rgb(0%,0%,0%);stroke-opacity:1;stroke-miterlimit:10;" d="M 0.000127795 0.000239326 L 4.979636 0.000239326 " transform="matrix(0.994702,0,0,-0.994702,136.550654,93.836176)"/>
<g style="fill:rgb(0%,0%,0%);fill-opacity:1;">
  <use xlink:href="#glyph2-4" x="136.550654" y="102.232452"/>
</g>
</g>
</svg>
